<svg xmlns="http://www.w3.org/2000/svg" xmlns:xlink="http://www.w3.org/1999/xlink" contentStyleType="text/css" data-diagram-type="SEQUENCE" height="412px" preserveAspectRatio="none" style="width:663px;height:412px;background:#FFFFFF;" version="1.1" viewBox="0 0 663 412" width="663px" zoomAndPan="magnify"><defs/><g><g><title>Administrateur / Utilisateur</title><rect fill="#000000" fill-opacity="0.00000" height="249.9297" width="8" x="99.1152" y="81.2969"/><line style="stroke:#181818;stroke-width:0.5;stroke-dasharray:5.0,5.0;" x1="103" x2="103" y1="81.2969" y2="331.2266"/></g><g><title>GestionClient</title><rect fill="#000000" fill-opacity="0.00000" height="249.9297" width="8" x="261.2822" y="81.2969"/><line style="stroke:#181818;stroke-width:0.5;stroke-dasharray:5.0,5.0;" x1="265.2305" x2="265.2305" y1="81.2969" y2="331.2266"/></g><g><title>JOptionPane</title><rect fill="#000000" fill-opacity="0.00000" height="249.9297" width="8" x="603.7217" y="81.2969"/><line style="stroke:#181818;stroke-width:0.5;stroke-dasharray:5.0,5.0;" x1="607.0415" x2="607.0415" y1="81.2969" y2="331.2266"/></g><g class="participant participant-head" data-participant="User"><text fill="#000000" font-family="sans-serif" font-size="14" lengthAdjust="spacing" textLength="190.2305" x="5" y="77.9951">Administrateur / Utilisateur</text><ellipse cx="103.1152" cy="13.5" fill="#E2E2F0" rx="8" ry="8" style="stroke:#181818;stroke-width:0.5;"/><path d="M103.1152,21.5 L103.1152,48.5 M90.1152,29.5 L116.1152,29.5 M103.1152,48.5 L90.1152,63.5 M103.1152,48.5 L116.1152,63.5" fill="none" style="stroke:#181818;stroke-width:0.5;"/></g><g class="participant participant-tail" data-participant="User"><text fill="#000000" font-family="sans-serif" font-size="14" lengthAdjust="spacing" textLength="190.2305" x="5" y="343.2217">Administrateur / Utilisateur</text><ellipse cx="103.1152" cy="355.0234" fill="#E2E2F0" rx="8" ry="8" style="stroke:#181818;stroke-width:0.5;"/><path d="M103.1152,363.0234 L103.1152,390.0234 M90.1152,371.0234 L116.1152,371.0234 M103.1152,390.0234 L90.1152,405.0234 M103.1152,390.0234 L116.1152,405.0234" fill="none" style="stroke:#181818;stroke-width:0.5;"/></g><g class="participant participant-head" data-participant="GC"><rect fill="#E2E2F0" height="30.2969" rx="2.5" ry="2.5" style="stroke:#181818;stroke-width:0.5;" width="108.1035" x="211.2305" y="50"/><text fill="#000000" font-family="sans-serif" font-size="14" lengthAdjust="spacing" textLength="94.1035" x="218.2305" y="69.9951">GestionClient</text></g><g class="participant participant-tail" data-participant="GC"><rect fill="#E2E2F0" height="30.2969" rx="2.5" ry="2.5" style="stroke:#181818;stroke-width:0.5;" width="108.1035" x="211.2305" y="330.2266"/><text fill="#000000" font-family="sans-serif" font-size="14" lengthAdjust="spacing" textLength="94.1035" x="218.2305" y="350.2217">GestionClient</text></g><g class="participant participant-head" data-participant="JP"><rect fill="#E2E2F0" height="30.2969" rx="2.5" ry="2.5" style="stroke:#181818;stroke-width:0.5;" width="99.3604" x="558.0415" y="50"/><text fill="#000000" font-family="sans-serif" font-size="14" lengthAdjust="spacing" textLength="85.3604" x="565.0415" y="69.9951">JOptionPane</text></g><g class="participant participant-tail" data-participant="JP"><rect fill="#E2E2F0" height="30.2969" rx="2.5" ry="2.5" style="stroke:#181818;stroke-width:0.5;" width="99.3604" x="558.0415" y="330.2266"/><text fill="#000000" font-family="sans-serif" font-size="14" lengthAdjust="spacing" textLength="85.3604" x="565.0415" y="350.2217">JOptionPane</text></g><g class="message" data-participant-1="User" data-participant-2="GC"><polygon fill="#181818" points="253.2822,108.4297,263.2822,112.4297,253.2822,116.4297,257.2822,112.4297" style="stroke:#181818;stroke-width:1;"/><line style="stroke:#181818;stroke-width:1;" x1="103.1152" x2="259.2822" y1="112.4297" y2="112.4297"/><text fill="#000000" font-family="sans-serif" font-size="13" lengthAdjust="spacing" textLength="128.5083" x="110.1152" y="107.3638">Clique sur "Ajouter"</text></g><g class="message" data-participant-1="GC" data-participant-2="JP"><polygon fill="#181818" points="595.7217,137.5625,605.7217,141.5625,595.7217,145.5625,599.7217,141.5625" style="stroke:#181818;stroke-width:1;"/><line style="stroke:#181818;stroke-width:1;" x1="265.2822" x2="601.7217" y1="141.5625" y2="141.5625"/><text fill="#000000" font-family="sans-serif" font-size="13" lengthAdjust="spacing" textLength="225.5322" x="272.2822" y="136.4966">Affiche formulaire d'ajout de client</text></g><g class="message" data-participant-1="User" data-participant-2="JP"><polygon fill="#181818" points="595.7217,166.6953,605.7217,170.6953,595.7217,174.6953,599.7217,170.6953" style="stroke:#181818;stroke-width:1;"/><line style="stroke:#181818;stroke-width:1;" x1="103.1152" x2="601.7217" y1="170.6953" y2="170.6953"/><text fill="#000000" font-family="sans-serif" font-size="13" lengthAdjust="spacing" textLength="480.6064" x="110.1152" y="165.6294">Saisie les donn&#233;es (nom, pr&#233;nom, email, num&#233;ro, mot de passe, adresse)</text></g><g class="message" data-participant-1="JP" data-participant-2="GC"><polygon fill="#181818" points="276.2822,195.8281,266.2822,199.8281,276.2822,203.8281,272.2822,199.8281" style="stroke:#181818;stroke-width:1;"/><line style="stroke:#181818;stroke-width:1;" x1="270.2822" x2="606.7217" y1="199.8281" y2="199.8281"/><text fill="#000000" font-family="sans-serif" font-size="13" lengthAdjust="spacing" textLength="189.6426" x="282.2822" y="194.7622">Retourne les donn&#233;es saisies</text></g><g class="message" data-participant-1="GC" data-participant-2="GC"><line style="stroke:#181818;stroke-width:1;" x1="265.2822" x2="307.2822" y1="228.9609" y2="228.9609"/><line style="stroke:#181818;stroke-width:1;" x1="307.2822" x2="307.2822" y1="228.9609" y2="241.9609"/><line style="stroke:#181818;stroke-width:1;" x1="266.2822" x2="307.2822" y1="241.9609" y2="241.9609"/><polygon fill="#181818" points="276.2822,237.9609,266.2822,241.9609,276.2822,245.9609,272.2822,241.9609" style="stroke:#181818;stroke-width:1;"/><text fill="#000000" font-family="sans-serif" font-size="13" lengthAdjust="spacing" textLength="235.2949" x="272.2822" y="223.895">Cr&#233;e un objet Client (new Client(...))</text></g><g class="message" data-participant-1="GC" data-participant-2="GC"><line style="stroke:#181818;stroke-width:1;" x1="265.2822" x2="307.2822" y1="271.0938" y2="271.0938"/><line style="stroke:#181818;stroke-width:1;" x1="307.2822" x2="307.2822" y1="271.0938" y2="284.0938"/><line style="stroke:#181818;stroke-width:1;" x1="266.2822" x2="307.2822" y1="284.0938" y2="284.0938"/><polygon fill="#181818" points="276.2822,280.0938,266.2822,284.0938,276.2822,288.0938,272.2822,284.0938" style="stroke:#181818;stroke-width:1;"/><text fill="#000000" font-family="sans-serif" font-size="13" lengthAdjust="spacing" textLength="254.5283" x="272.2822" y="266.0278">Ajoute le client &#224; la liste (ajouterClient)</text></g><g class="message" data-participant-1="GC" data-participant-2="JP"><polygon fill="#181818" points="595.7217,309.2266,605.7217,313.2266,595.7217,317.2266,599.7217,313.2266" style="stroke:#181818;stroke-width:1;"/><line style="stroke:#181818;stroke-width:1;" x1="265.2822" x2="601.7217" y1="313.2266" y2="313.2266"/><text fill="#000000" font-family="sans-serif" font-size="13" lengthAdjust="spacing" textLength="180.4067" x="272.2822" y="308.1606">Affiche confirmation d'ajout</text></g><!--SRC=[RL1BJiCm4Dtd54_Pa4YXxBj0ghgeb0qHg0SOaecOAhQ3F-8wR7EEN0pRQH4WTi-Uzvbvr7jZKHu69LgSj-GvM3pWx6KIbryboE7is1OpMI-zpAGzoXCxBqOV9s7jC-Tq_Cred-R4w4XpdhTTKIGVt3z6xXvH-XuOBgG5BYPujcLnEgPns-rn64VftnYZiIfC99Ont57YOM3qEVVRBmbUI9mm9dOOZDRh4a6bZMemstN9W1N9r407jIxMD50ccyta73UWmN84TT5sjnsVsPjWzHzNbvFSTTbyIqnW10tpUc6FhPMOpXzNNErskxh-eTWkZhxNKx1-OYB4rkDlHLiVcxR-fvNUw56iejJmhPSl]--></g></svg>