<svg xmlns="http://www.w3.org/2000/svg" xmlns:xlink="http://www.w3.org/1999/xlink" contentStyleType="text/css" data-diagram-type="SEQUENCE" height="487px" preserveAspectRatio="none" style="width:558px;height:487px;background:#FFFFFF;" version="1.1" viewBox="0 0 558 487" width="558px" zoomAndPan="magnify"><defs/><g><rect fill="none" height="132.3359" style="stroke:#000000;stroke-width:1.5;" width="395.9888" x="155.1313" y="256.9609"/><g><title>Administrateur</title><rect fill="#000000" fill-opacity="0.00000" height="325" width="8" x="56.3018" y="81.2969"/><line style="stroke:#181818;stroke-width:0.5;stroke-dasharray:5.0,5.0;" x1="60" x2="60" y1="81.2969" y2="406.2969"/></g><g><title>GestionAdministrateur</title><rect fill="#000000" fill-opacity="0.00000" height="325" width="8" x="247.2197" y="81.2969"/><line style="stroke:#181818;stroke-width:0.5;stroke-dasharray:5.0,5.0;" x1="251.1313" x2="251.1313" y1="81.2969" y2="406.2969"/></g><g><title>JOptionPane</title><rect fill="#000000" fill-opacity="0.00000" height="325" width="8" x="487.4399" y="81.2969"/><line style="stroke:#181818;stroke-width:0.5;stroke-dasharray:5.0,5.0;" x1="490.7598" x2="490.7598" y1="81.2969" y2="406.2969"/></g><g class="participant participant-head" data-participant="Admin"><text fill="#000000" font-family="sans-serif" font-size="14" lengthAdjust="spacing" textLength="104.6035" x="5" y="77.9951">Administrateur</text><ellipse cx="60.3018" cy="13.5" fill="#E2E2F0" rx="8" ry="8" style="stroke:#181818;stroke-width:0.5;"/><path d="M60.3018,21.5 L60.3018,48.5 M47.3018,29.5 L73.3018,29.5 M60.3018,48.5 L47.3018,63.5 M60.3018,48.5 L73.3018,63.5" fill="none" style="stroke:#181818;stroke-width:0.5;"/></g><g class="participant participant-tail" data-participant="Admin"><text fill="#000000" font-family="sans-serif" font-size="14" lengthAdjust="spacing" textLength="104.6035" x="5" y="418.292">Administrateur</text><ellipse cx="60.3018" cy="430.0938" fill="#E2E2F0" rx="8" ry="8" style="stroke:#181818;stroke-width:0.5;"/><path d="M60.3018,438.0938 L60.3018,465.0938 M47.3018,446.0938 L73.3018,446.0938 M60.3018,465.0938 L47.3018,480.0938 M60.3018,465.0938 L73.3018,480.0938" fill="none" style="stroke:#181818;stroke-width:0.5;"/></g><g class="participant participant-head" data-participant="GA"><rect fill="#E2E2F0" height="30.2969" rx="2.5" ry="2.5" style="stroke:#181818;stroke-width:0.5;" width="172.1768" x="165.1313" y="50"/><text fill="#000000" font-family="sans-serif" font-size="14" lengthAdjust="spacing" textLength="158.1768" x="172.1313" y="69.9951">GestionAdministrateur</text></g><g class="participant participant-tail" data-participant="GA"><rect fill="#E2E2F0" height="30.2969" rx="2.5" ry="2.5" style="stroke:#181818;stroke-width:0.5;" width="172.1768" x="165.1313" y="405.2969"/><text fill="#000000" font-family="sans-serif" font-size="14" lengthAdjust="spacing" textLength="158.1768" x="172.1313" y="425.292">GestionAdministrateur</text></g><g class="participant participant-head" data-participant="JP"><rect fill="#E2E2F0" height="30.2969" rx="2.5" ry="2.5" style="stroke:#181818;stroke-width:0.5;" width="99.3604" x="441.7598" y="50"/><text fill="#000000" font-family="sans-serif" font-size="14" lengthAdjust="spacing" textLength="85.3604" x="448.7598" y="69.9951">JOptionPane</text></g><g class="participant participant-tail" data-participant="JP"><rect fill="#E2E2F0" height="30.2969" rx="2.5" ry="2.5" style="stroke:#181818;stroke-width:0.5;" width="99.3604" x="441.7598" y="405.2969"/><text fill="#000000" font-family="sans-serif" font-size="14" lengthAdjust="spacing" textLength="85.3604" x="448.7598" y="425.292">JOptionPane</text></g><g class="message" data-participant-1="Admin" data-participant-2="GA"><polygon fill="#181818" points="239.2197,108.4297,249.2197,112.4297,239.2197,116.4297,243.2197,112.4297" style="stroke:#181818;stroke-width:1;"/><line style="stroke:#181818;stroke-width:1;" x1="60.3018" x2="245.2197" y1="112.4297" y2="112.4297"/><text fill="#000000" font-family="sans-serif" font-size="13" lengthAdjust="spacing" textLength="166.918" x="67.3018" y="107.3638">Clique sur "Se connecter"</text></g><g class="message" data-participant-1="GA" data-participant-2="JP"><polygon fill="#181818" points="479.4399,137.5625,489.4399,141.5625,479.4399,145.5625,483.4399,141.5625" style="stroke:#181818;stroke-width:1;"/><line style="stroke:#181818;stroke-width:1;" x1="251.2197" x2="485.4399" y1="141.5625" y2="141.5625"/><text fill="#000000" font-family="sans-serif" font-size="13" lengthAdjust="spacing" textLength="208.0762" x="258.2197" y="136.4966">Affiche formulaire de connexion</text></g><g class="message" data-participant-1="Admin" data-participant-2="JP"><polygon fill="#181818" points="479.4399,166.6953,489.4399,170.6953,479.4399,174.6953,483.4399,170.6953" style="stroke:#181818;stroke-width:1;"/><line style="stroke:#181818;stroke-width:1;" x1="60.3018" x2="485.4399" y1="170.6953" y2="170.6953"/><text fill="#000000" font-family="sans-serif" font-size="13" lengthAdjust="spacing" textLength="152.0264" x="67.3018" y="165.6294">Saisie ID, nom, pr&#233;nom</text></g><g class="message" data-participant-1="JP" data-participant-2="GA"><polygon fill="#181818" points="262.2197,195.8281,252.2197,199.8281,262.2197,203.8281,258.2197,199.8281" style="stroke:#181818;stroke-width:1;"/><line style="stroke:#181818;stroke-width:1;" x1="256.2197" x2="490.4399" y1="199.8281" y2="199.8281"/><text fill="#000000" font-family="sans-serif" font-size="13" lengthAdjust="spacing" textLength="216.2202" x="268.2197" y="194.7622">Retourne les informations saisies</text></g><g class="message" data-participant-1="GA" data-participant-2="GA"><line style="stroke:#181818;stroke-width:1;" x1="251.2197" x2="293.2197" y1="228.9609" y2="228.9609"/><line style="stroke:#181818;stroke-width:1;" x1="293.2197" x2="293.2197" y1="228.9609" y2="241.9609"/><line style="stroke:#181818;stroke-width:1;" x1="252.2197" x2="293.2197" y1="241.9609" y2="241.9609"/><polygon fill="#181818" points="262.2197,237.9609,252.2197,241.9609,262.2197,245.9609,258.2197,241.9609" style="stroke:#181818;stroke-width:1;"/><text fill="#000000" font-family="sans-serif" font-size="13" lengthAdjust="spacing" textLength="225.8623" x="258.2197" y="223.895">V&#233;rifie les infos dans map(admins)</text></g><path d="M155.1313,256.9609 L219.5742,256.9609 L219.5742,264.0938 L209.5742,274.0938 L155.1313,274.0938 L155.1313,256.9609" fill="#EEEEEE" style="stroke:#000000;stroke-width:1.5;"/><rect fill="none" height="132.3359" style="stroke:#000000;stroke-width:1.5;" width="395.9888" x="155.1313" y="256.9609"/><text fill="#000000" font-family="sans-serif" font-size="13" font-weight="bold" lengthAdjust="spacing" textLength="19.4429" x="170.1313" y="270.0278">alt</text><text fill="#000000" font-family="sans-serif" font-size="11" font-weight="bold" lengthAdjust="spacing" textLength="132.4297" x="234.5742" y="269.1714">[Authentification OK]</text><g class="message" data-participant-1="GA" data-participant-2="JP"><polygon fill="#181818" points="479.4399,291.2266,489.4399,295.2266,479.4399,299.2266,483.4399,295.2266" style="stroke:#181818;stroke-width:1;"/><line style="stroke:#181818;stroke-width:1;" x1="251.2197" x2="485.4399" y1="295.2266" y2="295.2266"/><text fill="#000000" font-family="sans-serif" font-size="13" lengthAdjust="spacing" textLength="181.0098" x="258.2197" y="290.1606">Affiche "Connexion r&#233;ussie"</text></g><g class="message" data-participant-1="GA" data-participant-2="GA"><line style="stroke:#181818;stroke-width:1;" x1="251.2197" x2="293.2197" y1="324.3594" y2="324.3594"/><line style="stroke:#181818;stroke-width:1;" x1="293.2197" x2="293.2197" y1="324.3594" y2="337.3594"/><line style="stroke:#181818;stroke-width:1;" x1="252.2197" x2="293.2197" y1="337.3594" y2="337.3594"/><polygon fill="#181818" points="262.2197,333.3594,252.2197,337.3594,262.2197,341.3594,258.2197,337.3594" style="stroke:#181818;stroke-width:1;"/><text fill="#000000" font-family="sans-serif" font-size="13" lengthAdjust="spacing" textLength="157.4409" x="258.2197" y="319.2935">Appel openAdminPage()</text></g><line style="stroke:#000000;stroke-width:1;stroke-dasharray:2.0,2.0;" x1="155.1313" x2="551.1201" y1="346.3594" y2="346.3594"/><text fill="#000000" font-family="sans-serif" font-size="11" font-weight="bold" lengthAdjust="spacing" textLength="132.4297" x="160.1313" y="356.5698">[Authentification KO]</text><g class="message" data-participant-1="GA" data-participant-2="JP"><polygon fill="#181818" points="479.4399,377.2969,489.4399,381.2969,479.4399,385.2969,483.4399,381.2969" style="stroke:#181818;stroke-width:1;"/><line style="stroke:#181818;stroke-width:1;" x1="251.2197" x2="485.4399" y1="381.2969" y2="381.2969"/><text fill="#000000" font-family="sans-serif" font-size="13" lengthAdjust="spacing" textLength="189.8457" x="258.2197" y="376.231">Affiche "Connexion &#233;chou&#233;e"</text></g><!--SRC=[XP11QiCm44NtEiNWLGBf1R8eY1HCdOLD0zqFyhWPi2L58q6lv7FuOfNSXBIaKAs4zEQ_Bw69Ba2b-uajImmOAOKAK60zKXv3PCCUROIg9edix1zmhN-JJUiBsQ6bzRxfb5h7uEavmtiuZ7n919Ao_4HWdBLa8eLArRemJRS7FGnipWI32rCQaGD1VqK_S_WziC0dP662rvSTM3Vjm8TbpXlLT3Vb6qMNWYKOIO1jISLIKa3MMRcg2_k-p847lhC2FMPoGh_1efMjmZ62Jl5CDcRKh5dG7XNazVY8wd3h3RbPaYoiVg15ghsd4Podxn_ky8CsMqMZqAFdsFxlMMPpTccPiuXi_mK0]--></g></svg>