<svg xmlns="http://www.w3.org/2000/svg" xmlns:xlink="http://www.w3.org/1999/xlink" contentStyleType="text/css" data-diagram-type="SEQUENCE" height="474px" preserveAspectRatio="none" style="width:738px;height:474px;background:#FFFFFF;" version="1.1" viewBox="0 0 738 474" width="738px" zoomAndPan="magnify"><defs/><g><rect fill="none" height="119.3359" style="stroke:#000000;stroke-width:1.5;" width="721.21" x="10" y="256.9609"/><g><title>Livreur</title><rect fill="#000000" fill-opacity="0.00000" height="312" width="8" x="43.4863" y="81.2969"/><line style="stroke:#181818;stroke-width:0.5;stroke-dasharray:5.0,5.0;" x1="47" x2="47" y1="81.2969" y2="393.2969"/></g><g><title>GestionLivreur</title><rect fill="#000000" fill-opacity="0.00000" height="312" width="8" x="389.4775" y="81.2969"/><line style="stroke:#181818;stroke-width:0.5;stroke-dasharray:5.0,5.0;" x1="393.2046" x2="393.2046" y1="81.2969" y2="393.2969"/></g><g><title>JOptionPane</title><rect fill="#000000" fill-opacity="0.00000" height="312" width="8" x="667.5298" y="81.2969"/><line style="stroke:#181818;stroke-width:0.5;stroke-dasharray:5.0,5.0;" x1="670.8496" x2="670.8496" y1="81.2969" y2="393.2969"/></g><g class="participant participant-head" data-participant="L"><text fill="#000000" font-family="sans-serif" font-size="14" lengthAdjust="spacing" textLength="48.9727" x="20" y="77.9951">Livreur</text><ellipse cx="47.4863" cy="13.5" fill="#E2E2F0" rx="8" ry="8" style="stroke:#181818;stroke-width:0.5;"/><path d="M47.4863,21.5 L47.4863,48.5 M34.4863,29.5 L60.4863,29.5 M47.4863,48.5 L34.4863,63.5 M47.4863,48.5 L60.4863,63.5" fill="none" style="stroke:#181818;stroke-width:0.5;"/></g><g class="participant participant-tail" data-participant="L"><text fill="#000000" font-family="sans-serif" font-size="14" lengthAdjust="spacing" textLength="48.9727" x="20" y="405.292">Livreur</text><ellipse cx="47.4863" cy="417.0938" fill="#E2E2F0" rx="8" ry="8" style="stroke:#181818;stroke-width:0.5;"/><path d="M47.4863,425.0938 L47.4863,452.0938 M34.4863,433.0938 L60.4863,433.0938 M47.4863,452.0938 L34.4863,467.0938 M47.4863,452.0938 L60.4863,467.0938" fill="none" style="stroke:#181818;stroke-width:0.5;"/></g><g class="participant participant-head" data-participant="GL"><rect fill="#E2E2F0" height="30.2969" rx="2.5" ry="2.5" style="stroke:#181818;stroke-width:0.5;" width="116.5459" x="335.2046" y="50"/><text fill="#000000" font-family="sans-serif" font-size="14" lengthAdjust="spacing" textLength="102.5459" x="342.2046" y="69.9951">GestionLivreur</text></g><g class="participant participant-tail" data-participant="GL"><rect fill="#E2E2F0" height="30.2969" rx="2.5" ry="2.5" style="stroke:#181818;stroke-width:0.5;" width="116.5459" x="335.2046" y="392.2969"/><text fill="#000000" font-family="sans-serif" font-size="14" lengthAdjust="spacing" textLength="102.5459" x="342.2046" y="412.292">GestionLivreur</text></g><g class="participant participant-head" data-participant="JP"><rect fill="#E2E2F0" height="30.2969" rx="2.5" ry="2.5" style="stroke:#181818;stroke-width:0.5;" width="99.3604" x="621.8496" y="50"/><text fill="#000000" font-family="sans-serif" font-size="14" lengthAdjust="spacing" textLength="85.3604" x="628.8496" y="69.9951">JOptionPane</text></g><g class="participant participant-tail" data-participant="JP"><rect fill="#E2E2F0" height="30.2969" rx="2.5" ry="2.5" style="stroke:#181818;stroke-width:0.5;" width="99.3604" x="621.8496" y="392.2969"/><text fill="#000000" font-family="sans-serif" font-size="14" lengthAdjust="spacing" textLength="85.3604" x="628.8496" y="412.292">JOptionPane</text></g><g class="message" data-participant-1="L" data-participant-2="GL"><polygon fill="#181818" points="381.4775,108.4297,391.4775,112.4297,381.4775,116.4297,385.4775,112.4297" style="stroke:#181818;stroke-width:1;"/><line style="stroke:#181818;stroke-width:1;" x1="47.4863" x2="387.4775" y1="112.4297" y2="112.4297"/><text fill="#000000" font-family="sans-serif" font-size="13" lengthAdjust="spacing" textLength="166.918" x="54.4863" y="107.3638">Clique sur "Se connecter"</text></g><g class="message" data-participant-1="GL" data-participant-2="JP"><polygon fill="#181818" points="659.5298,137.5625,669.5298,141.5625,659.5298,145.5625,663.5298,141.5625" style="stroke:#181818;stroke-width:1;"/><line style="stroke:#181818;stroke-width:1;" x1="393.4775" x2="665.5298" y1="141.5625" y2="141.5625"/><text fill="#000000" font-family="sans-serif" font-size="13" lengthAdjust="spacing" textLength="254.0522" x="400.4775" y="136.4966">Affiche formulaire de connexion livreur</text></g><g class="message" data-participant-1="L" data-participant-2="JP"><polygon fill="#181818" points="659.5298,166.6953,669.5298,170.6953,659.5298,174.6953,663.5298,170.6953" style="stroke:#181818;stroke-width:1;"/><line style="stroke:#181818;stroke-width:1;" x1="47.4863" x2="665.5298" y1="170.6953" y2="170.6953"/><text fill="#000000" font-family="sans-serif" font-size="13" lengthAdjust="spacing" textLength="152.0264" x="54.4863" y="165.6294">Saisie ID, nom, pr&#233;nom</text></g><g class="message" data-participant-1="JP" data-participant-2="GL"><polygon fill="#181818" points="404.4775,195.8281,394.4775,199.8281,404.4775,203.8281,400.4775,199.8281" style="stroke:#181818;stroke-width:1;"/><line style="stroke:#181818;stroke-width:1;" x1="398.4775" x2="670.5298" y1="199.8281" y2="199.8281"/><text fill="#000000" font-family="sans-serif" font-size="13" lengthAdjust="spacing" textLength="189.6426" x="410.4775" y="194.7622">Retourne les donn&#233;es saisies</text></g><g class="message" data-participant-1="GL" data-participant-2="GL"><line style="stroke:#181818;stroke-width:1;" x1="393.4775" x2="435.4775" y1="228.9609" y2="228.9609"/><line style="stroke:#181818;stroke-width:1;" x1="435.4775" x2="435.4775" y1="228.9609" y2="241.9609"/><line style="stroke:#181818;stroke-width:1;" x1="394.4775" x2="435.4775" y1="241.9609" y2="241.9609"/><polygon fill="#181818" points="404.4775,237.9609,394.4775,241.9609,404.4775,245.9609,400.4775,241.9609" style="stroke:#181818;stroke-width:1;"/><text fill="#000000" font-family="sans-serif" font-size="13" lengthAdjust="spacing" textLength="256.9912" x="400.4775" y="223.895">V&#233;rifie les infos dans existingDeliverers</text></g><path d="M10,256.9609 L74.4429,256.9609 L74.4429,264.0938 L64.4429,274.0938 L10,274.0938 L10,256.9609" fill="#EEEEEE" style="stroke:#000000;stroke-width:1.5;"/><rect fill="none" height="119.3359" style="stroke:#000000;stroke-width:1.5;" width="721.21" x="10" y="256.9609"/><text fill="#000000" font-family="sans-serif" font-size="13" font-weight="bold" lengthAdjust="spacing" textLength="19.4429" x="25" y="270.0278">alt</text><text fill="#000000" font-family="sans-serif" font-size="11" font-weight="bold" lengthAdjust="spacing" textLength="132.4297" x="89.4429" y="269.1714">[Authentification OK]</text><g class="message" data-participant-1="GL" data-participant-2="JP"><polygon fill="#181818" points="659.5298,291.2266,669.5298,295.2266,659.5298,299.2266,663.5298,295.2266" style="stroke:#181818;stroke-width:1;"/><line style="stroke:#181818;stroke-width:1;" x1="393.4775" x2="665.5298" y1="295.2266" y2="295.2266"/><text fill="#000000" font-family="sans-serif" font-size="13" lengthAdjust="spacing" textLength="181.0098" x="400.4775" y="290.1606">Affiche "Connexion r&#233;ussie"</text></g><g class="message" data-participant-1="GL" data-participant-2="L"><polygon fill="#181818" points="58.4863,320.3594,48.4863,324.3594,58.4863,328.3594,54.4863,324.3594" style="stroke:#181818;stroke-width:1;"/><line style="stroke:#181818;stroke-width:1;" x1="52.4863" x2="392.4775" y1="324.3594" y2="324.3594"/><text fill="#000000" font-family="sans-serif" font-size="13" lengthAdjust="spacing" textLength="321.9912" x="64.4863" y="319.2935">Ouvre la fen&#234;tre de consultation des commandes</text></g><line style="stroke:#000000;stroke-width:1;stroke-dasharray:2.0,2.0;" x1="10" x2="731.21" y1="333.3594" y2="333.3594"/><text fill="#000000" font-family="sans-serif" font-size="11" font-weight="bold" lengthAdjust="spacing" textLength="132.4297" x="15" y="343.5698">[Authentification KO]</text><g class="message" data-participant-1="GL" data-participant-2="JP"><polygon fill="#181818" points="659.5298,364.2969,669.5298,368.2969,659.5298,372.2969,663.5298,368.2969" style="stroke:#181818;stroke-width:1;"/><line style="stroke:#181818;stroke-width:1;" x1="393.4775" x2="665.5298" y1="368.2969" y2="368.2969"/><text fill="#000000" font-family="sans-serif" font-size="13" lengthAdjust="spacing" textLength="163.8267" x="400.4775" y="363.231">Affiche message d'erreur</text></g><!--SRC=[TP11QiD034NtSmhXJJVf1R8eX0HC7ODD0zsBiPmCZ3NkQARqIkarVB7AJXf2GxqI-4dl_q6RGeIYTf-HSYm01MepOapEkX4vGL6I91VudYZ_85KppaYBJCl_gZMcXkSN1TUmzUuZ4qXMpO701cQoYM9XoeMfsZLi-jxP4q4Vuf0zkaZGNT4lFGp-8ZUtXGCwSGIlknLm65OmnkciWwdQN-qRfP0Z4tWIwFJITDP1bZsvgcVkVJf7rxiBvxWFIYCBg5Xxyt57AgT8KGpw19kSJiH9DopEdQ7P6z3liKknlSNNS5dKMzoXgcwojWAFq1DFt-bMMh9Fb-ETPh9X691rCkI57WFicty232I2HptwH75vFUBk1m00]--></g></svg>