<svg xmlns="http://www.w3.org/2000/svg" xmlns:xlink="http://www.w3.org/1999/xlink" contentStyleType="text/css" data-diagram-type="CLASS" height="800px" preserveAspectRatio="none" style="width:789px;height:800px;background:#FFFFFF;" version="1.1" viewBox="0 0 789 800" width="789px" zoomAndPan="magnify"><defs/><g><!--class Client--><g class="entity" data-entity="Client" data-source-line="3" data-uid="ent0002" id="entity_Client"><rect fill="#F1F1F1" height="357.6406" rx="2.5" ry="2.5" style="stroke:#181818;stroke-width:0.5;" width="230.8799" x="248.09" y="436.27"/><ellipse cx="339.0148" cy="452.27" fill="#ADD1B2" rx="11" ry="11" style="stroke:#181818;stroke-width:1;"/><path d="M341.9836,457.9106 Q341.4054,458.2075 340.7648,458.3481 Q340.1242,458.5044 339.4211,458.5044 Q336.9211,458.5044 335.5929,456.8638 Q334.2804,455.2075 334.2804,452.0825 Q334.2804,448.9575 335.5929,447.3013 Q336.9211,445.645 339.4211,445.645 Q340.1242,445.645 340.7648,445.8013 Q341.4211,445.9575 341.9836,446.2544 L341.9836,448.9731 Q341.3586,448.395 340.7648,448.1294 Q340.1711,447.8481 339.5461,447.8481 Q338.2023,447.8481 337.5148,448.9263 Q336.8273,449.9888 336.8273,452.0825 Q336.8273,454.1763 337.5148,455.2544 Q338.2023,456.3169 339.5461,456.3169 Q340.1711,456.3169 340.7648,456.0513 Q341.3586,455.77 341.9836,455.1919 L341.9836,457.9106 Z " fill="#000000"/><text fill="#000000" font-family="sans-serif" font-size="14" lengthAdjust="spacing" textLength="40.5303" x="359.5148" y="457.1167">Client</text><line style="stroke:#181818;stroke-width:0.5;" x1="249.09" x2="477.9699" y1="468.27" y2="468.27"/><rect fill="none" height="6" style="stroke:#C82930;stroke-width:1;" width="6" x="256.09" y="478.9184"/><text fill="#000000" font-family="sans-serif" font-size="14" lengthAdjust="spacing" textLength="86.4746" x="268.09" y="485.2651">nom : String</text><rect fill="none" height="6" style="stroke:#C82930;stroke-width:1;" width="6" x="256.09" y="495.2153"/><text fill="#000000" font-family="sans-serif" font-size="14" lengthAdjust="spacing" textLength="109.7305" x="268.09" y="501.562">prenom : String</text><rect fill="none" height="6" style="stroke:#C82930;stroke-width:1;" width="6" x="256.09" y="511.5122"/><text fill="#000000" font-family="sans-serif" font-size="14" lengthAdjust="spacing" textLength="94.0078" x="268.09" y="517.8589">email : String</text><rect fill="none" height="6" style="stroke:#C82930;stroke-width:1;" width="6" x="256.09" y="527.8091"/><text fill="#000000" font-family="sans-serif" font-size="14" lengthAdjust="spacing" textLength="109.7168" x="268.09" y="534.1557">numero : String</text><rect fill="none" height="6" style="stroke:#C82930;stroke-width:1;" width="6" x="256.09" y="544.1059"/><text fill="#000000" font-family="sans-serif" font-size="14" lengthAdjust="spacing" textLength="142.707" x="268.09" y="550.4526">motDePasse : String</text><rect fill="none" height="6" style="stroke:#C82930;stroke-width:1;" width="6" x="256.09" y="560.4028"/><text fill="#000000" font-family="sans-serif" font-size="14" lengthAdjust="spacing" textLength="110.4346" x="268.09" y="566.7495">adresse : String</text><line style="stroke:#181818;stroke-width:0.5;" x1="249.09" x2="477.9699" y1="574.0513" y2="574.0513"/><ellipse cx="259.09" cy="587.6997" fill="#84BE84" rx="3" ry="3" style="stroke:#038048;stroke-width:1;"/><text fill="#000000" font-family="sans-serif" font-size="14" lengthAdjust="spacing" textLength="121.9873" x="268.09" y="591.0464">getNom() : String</text><ellipse cx="259.09" cy="603.9966" fill="#84BE84" rx="3" ry="3" style="stroke:#038048;stroke-width:1;"/><text fill="#000000" font-family="sans-serif" font-size="14" lengthAdjust="spacing" textLength="143.1992" x="268.09" y="607.3432">getPrenom() : String</text><ellipse cx="259.09" cy="620.2934" fill="#84BE84" rx="3" ry="3" style="stroke:#038048;stroke-width:1;"/><text fill="#000000" font-family="sans-serif" font-size="14" lengthAdjust="spacing" textLength="128.1533" x="268.09" y="623.6401">getEmail() : String</text><ellipse cx="259.09" cy="636.5903" fill="#84BE84" rx="3" ry="3" style="stroke:#038048;stroke-width:1;"/><text fill="#000000" font-family="sans-serif" font-size="14" lengthAdjust="spacing" textLength="145.2295" x="268.09" y="639.937">getNumero() : String</text><ellipse cx="259.09" cy="652.8872" fill="#84BE84" rx="3" ry="3" style="stroke:#038048;stroke-width:1;"/><text fill="#000000" font-family="sans-serif" font-size="14" lengthAdjust="spacing" textLength="175.0615" x="268.09" y="656.2339">getMotDePasse() : String</text><ellipse cx="259.09" cy="669.1841" fill="#84BE84" rx="3" ry="3" style="stroke:#038048;stroke-width:1;"/><text fill="#000000" font-family="sans-serif" font-size="14" lengthAdjust="spacing" textLength="145.3457" x="268.09" y="672.5307">getAdresse() : String</text><text fill="#000000" font-family="sans-serif" font-size="14" lengthAdjust="spacing" textLength="4.4502" x="268.09" y="688.8276">&#160;</text><ellipse cx="259.09" cy="701.7778" fill="#84BE84" rx="3" ry="3" style="stroke:#038048;stroke-width:1;"/><text fill="#000000" font-family="sans-serif" font-size="14" lengthAdjust="spacing" textLength="151.4707" x="268.09" y="705.1245">setNom(nom : String)</text><ellipse cx="259.09" cy="718.0747" fill="#84BE84" rx="3" ry="3" style="stroke:#038048;stroke-width:1;"/><text fill="#000000" font-family="sans-serif" font-size="14" lengthAdjust="spacing" textLength="195.9385" x="268.09" y="721.4214">setPrenom(prenom : String)</text><ellipse cx="259.09" cy="734.3716" fill="#84BE84" rx="3" ry="3" style="stroke:#038048;stroke-width:1;"/><text fill="#000000" font-family="sans-serif" font-size="14" lengthAdjust="spacing" textLength="165.1699" x="268.09" y="737.7182">setEmail(email : String)</text><ellipse cx="259.09" cy="750.6684" fill="#84BE84" rx="3" ry="3" style="stroke:#038048;stroke-width:1;"/><text fill="#000000" font-family="sans-serif" font-size="14" lengthAdjust="spacing" textLength="197.9551" x="268.09" y="754.0151">setNumero(numero : String)</text><ellipse cx="259.09" cy="766.9653" fill="#84BE84" rx="3" ry="3" style="stroke:#038048;stroke-width:1;"/><text fill="#000000" font-family="sans-serif" font-size="14" lengthAdjust="spacing" textLength="204.8799" x="268.09" y="770.312">setMotDePasse(mdp : String)</text><ellipse cx="259.09" cy="783.2622" fill="#84BE84" rx="3" ry="3" style="stroke:#038048;stroke-width:1;"/><text fill="#000000" font-family="sans-serif" font-size="14" lengthAdjust="spacing" textLength="198.7891" x="268.09" y="786.6089">setAdresse(adresse : String)</text></g><!--class Livreur--><g class="entity" data-entity="Livreur" data-source-line="26" data-uid="ent0003" id="entity_Livreur"><rect fill="#F1F1F1" height="308.75" rx="2.5" ry="2.5" style="stroke:#181818;stroke-width:0.5;" width="224.7891" x="538.14" y="460.71"/><ellipse cx="621.7982" cy="476.71" fill="#ADD1B2" rx="11" ry="11" style="stroke:#181818;stroke-width:1;"/><path d="M624.767,482.3506 Q624.1888,482.6475 623.5482,482.7881 Q622.9076,482.9444 622.2045,482.9444 Q619.7045,482.9444 618.3763,481.3038 Q617.0638,479.6475 617.0638,476.5225 Q617.0638,473.3975 618.3763,471.7413 Q619.7045,470.085 622.2045,470.085 Q622.9076,470.085 623.5482,470.2413 Q624.2045,470.3975 624.767,470.6944 L624.767,473.4131 Q624.142,472.835 623.5482,472.5694 Q622.9545,472.2881 622.3295,472.2881 Q620.9857,472.2881 620.2982,473.3663 Q619.6107,474.4288 619.6107,476.5225 Q619.6107,478.6163 620.2982,479.6944 Q620.9857,480.7569 622.3295,480.7569 Q622.9545,480.7569 623.5482,480.4913 Q624.142,480.21 624.767,479.6319 L624.767,482.3506 Z " fill="#000000"/><text fill="#000000" font-family="sans-serif" font-size="14" lengthAdjust="spacing" textLength="48.9727" x="642.2982" y="481.5567">Livreur</text><line style="stroke:#181818;stroke-width:0.5;" x1="539.14" x2="761.9291" y1="492.71" y2="492.71"/><rect fill="none" height="6" style="stroke:#C82930;stroke-width:1;" width="6" x="546.14" y="503.3584"/><text fill="#000000" font-family="sans-serif" font-size="14" lengthAdjust="spacing" textLength="65.6318" x="558.14" y="509.7051">code : int</text><rect fill="none" height="6" style="stroke:#C82930;stroke-width:1;" width="6" x="546.14" y="519.6553"/><text fill="#000000" font-family="sans-serif" font-size="14" lengthAdjust="spacing" textLength="109.7305" x="558.14" y="526.002">prenom : String</text><rect fill="none" height="6" style="stroke:#C82930;stroke-width:1;" width="6" x="546.14" y="535.9522"/><text fill="#000000" font-family="sans-serif" font-size="14" lengthAdjust="spacing" textLength="86.4746" x="558.14" y="542.2989">nom : String</text><rect fill="none" height="6" style="stroke:#C82930;stroke-width:1;" width="6" x="546.14" y="552.2491"/><text fill="#000000" font-family="sans-serif" font-size="14" lengthAdjust="spacing" textLength="94.0078" x="558.14" y="558.5957">email : String</text><rect fill="none" height="6" style="stroke:#C82930;stroke-width:1;" width="6" x="546.14" y="568.5459"/><text fill="#000000" font-family="sans-serif" font-size="14" lengthAdjust="spacing" textLength="110.4346" x="558.14" y="574.8926">adresse : String</text><line style="stroke:#181818;stroke-width:0.5;" x1="539.14" x2="761.9291" y1="582.1944" y2="582.1944"/><ellipse cx="549.14" cy="595.8428" fill="#84BE84" rx="3" ry="3" style="stroke:#038048;stroke-width:1;"/><text fill="#000000" font-family="sans-serif" font-size="14" lengthAdjust="spacing" textLength="101.623" x="558.14" y="599.1895">getCode() : int</text><ellipse cx="549.14" cy="612.1397" fill="#84BE84" rx="3" ry="3" style="stroke:#038048;stroke-width:1;"/><text fill="#000000" font-family="sans-serif" font-size="14" lengthAdjust="spacing" textLength="143.1992" x="558.14" y="615.4864">getPrenom() : String</text><ellipse cx="549.14" cy="628.4366" fill="#84BE84" rx="3" ry="3" style="stroke:#038048;stroke-width:1;"/><text fill="#000000" font-family="sans-serif" font-size="14" lengthAdjust="spacing" textLength="121.9873" x="558.14" y="631.7832">getNom() : String</text><ellipse cx="549.14" cy="644.7334" fill="#84BE84" rx="3" ry="3" style="stroke:#038048;stroke-width:1;"/><text fill="#000000" font-family="sans-serif" font-size="14" lengthAdjust="spacing" textLength="128.1533" x="558.14" y="648.0801">getEmail() : String</text><ellipse cx="549.14" cy="661.0303" fill="#84BE84" rx="3" ry="3" style="stroke:#038048;stroke-width:1;"/><text fill="#000000" font-family="sans-serif" font-size="14" lengthAdjust="spacing" textLength="145.3457" x="558.14" y="664.377">getAdresse() : String</text><text fill="#000000" font-family="sans-serif" font-size="14" lengthAdjust="spacing" textLength="4.4502" x="558.14" y="680.6739">&#160;</text><ellipse cx="549.14" cy="693.6241" fill="#84BE84" rx="3" ry="3" style="stroke:#038048;stroke-width:1;"/><text fill="#000000" font-family="sans-serif" font-size="14" lengthAdjust="spacing" textLength="133.793" x="558.14" y="696.9707">setCode(code : int)</text><ellipse cx="549.14" cy="709.9209" fill="#84BE84" rx="3" ry="3" style="stroke:#038048;stroke-width:1;"/><text fill="#000000" font-family="sans-serif" font-size="14" lengthAdjust="spacing" textLength="195.9385" x="558.14" y="713.2676">setPrenom(prenom : String)</text><ellipse cx="549.14" cy="726.2178" fill="#84BE84" rx="3" ry="3" style="stroke:#038048;stroke-width:1;"/><text fill="#000000" font-family="sans-serif" font-size="14" lengthAdjust="spacing" textLength="151.4707" x="558.14" y="729.5645">setNom(nom : String)</text><ellipse cx="549.14" cy="742.5147" fill="#84BE84" rx="3" ry="3" style="stroke:#038048;stroke-width:1;"/><text fill="#000000" font-family="sans-serif" font-size="14" lengthAdjust="spacing" textLength="165.1699" x="558.14" y="745.8614">setEmail(email : String)</text><ellipse cx="549.14" cy="758.8116" fill="#84BE84" rx="3" ry="3" style="stroke:#038048;stroke-width:1;"/><text fill="#000000" font-family="sans-serif" font-size="14" lengthAdjust="spacing" textLength="198.7891" x="558.14" y="762.1582">setAdresse(adresse : String)</text></g><!--class Administrateur--><g class="entity" data-entity="Administrateur" data-source-line="46" data-uid="ent0004" id="entity_Administrateur"><rect fill="#F1F1F1" height="113.1875" rx="2.5" ry="2.5" style="stroke:#181818;stroke-width:0.5;" width="201.0615" x="7" y="229.78"/><ellipse cx="51.0061" cy="245.78" fill="#ADD1B2" rx="11" ry="11" style="stroke:#181818;stroke-width:1;"/><path d="M53.9749,251.4206 Q53.3967,251.7175 52.7561,251.8581 Q52.1155,252.0144 51.4124,252.0144 Q48.9124,252.0144 47.5842,250.3737 Q46.2717,248.7175 46.2717,245.5925 Q46.2717,242.4675 47.5842,240.8112 Q48.9124,239.155 51.4124,239.155 Q52.1155,239.155 52.7561,239.3112 Q53.4124,239.4675 53.9749,239.7644 L53.9749,242.4831 Q53.3499,241.905 52.7561,241.6394 Q52.1624,241.3581 51.5374,241.3581 Q50.1936,241.3581 49.5061,242.4362 Q48.8186,243.4987 48.8186,245.5925 Q48.8186,247.6862 49.5061,248.7644 Q50.1936,249.8269 51.5374,249.8269 Q52.1624,249.8269 52.7561,249.5612 Q53.3499,249.28 53.9749,248.7019 L53.9749,251.4206 Z " fill="#000000"/><text fill="#000000" font-family="sans-serif" font-size="14" lengthAdjust="spacing" textLength="104.6035" x="71.4519" y="250.6267">Administrateur</text><line style="stroke:#181818;stroke-width:0.5;" x1="8" x2="207.0615" y1="261.78" y2="261.78"/><rect fill="none" height="6" style="stroke:#C82930;stroke-width:1;" width="6" x="15" y="272.4284"/><text fill="#000000" font-family="sans-serif" font-size="14" lengthAdjust="spacing" textLength="94.0078" x="27" y="278.7751">email : String</text><rect fill="none" height="6" style="stroke:#C82930;stroke-width:1;" width="6" x="15" y="288.7253"/><text fill="#000000" font-family="sans-serif" font-size="14" lengthAdjust="spacing" textLength="142.707" x="27" y="295.072">motDePasse : String</text><line style="stroke:#181818;stroke-width:0.5;" x1="8" x2="207.0615" y1="302.3738" y2="302.3738"/><ellipse cx="18" cy="316.0222" fill="#84BE84" rx="3" ry="3" style="stroke:#038048;stroke-width:1;"/><text fill="#000000" font-family="sans-serif" font-size="14" lengthAdjust="spacing" textLength="128.1533" x="27" y="319.3689">getEmail() : String</text><ellipse cx="18" cy="332.3191" fill="#84BE84" rx="3" ry="3" style="stroke:#038048;stroke-width:1;"/><text fill="#000000" font-family="sans-serif" font-size="14" lengthAdjust="spacing" textLength="175.0615" x="27" y="335.6657">getMotDePasse() : String</text></g><!--class GestionClient--><g class="entity" data-entity="GestionClient" data-source-line="56" data-uid="ent0005" id="entity_GestionClient"><rect fill="#F1F1F1" height="145.7813" rx="2.5" ry="2.5" style="stroke:#181818;stroke-width:0.5;" width="241.6465" x="242.71" y="213.49"/><ellipse cx="312.2315" cy="229.49" fill="#ADD1B2" rx="11" ry="11" style="stroke:#181818;stroke-width:1;"/><path d="M315.2002,235.1306 Q314.6221,235.4275 313.9815,235.5681 Q313.3409,235.7244 312.6377,235.7244 Q310.1377,235.7244 308.8096,234.0838 Q307.4971,232.4275 307.4971,229.3025 Q307.4971,226.1775 308.8096,224.5213 Q310.1377,222.865 312.6377,222.865 Q313.3409,222.865 313.9815,223.0213 Q314.6377,223.1775 315.2002,223.4744 L315.2002,226.1931 Q314.5752,225.615 313.9815,225.3494 Q313.3877,225.0681 312.7627,225.0681 Q311.419,225.0681 310.7315,226.1463 Q310.044,227.2088 310.044,229.3025 Q310.044,231.3963 310.7315,232.4744 Q311.419,233.5369 312.7627,233.5369 Q313.3877,233.5369 313.9815,233.2713 Q314.5752,232.99 315.2002,232.4119 L315.2002,235.1306 Z " fill="#000000"/><text fill="#000000" font-family="sans-serif" font-size="14" lengthAdjust="spacing" textLength="94.1035" x="332.7315" y="234.3367">GestionClient</text><line style="stroke:#181818;stroke-width:0.5;" x1="243.71" x2="483.3565" y1="245.49" y2="245.49"/><rect fill="none" height="6" style="stroke:#C82930;stroke-width:1;" width="6" x="250.71" y="256.1384"/><text fill="#000000" font-family="sans-serif" font-size="14" lengthAdjust="spacing" textLength="147.8271" x="262.71" y="262.4851">clients : List&lt;Client&gt;</text><line style="stroke:#181818;stroke-width:0.5;" x1="243.71" x2="483.3565" y1="269.7869" y2="269.7869"/><ellipse cx="253.71" cy="283.4353" fill="#84BE84" rx="3" ry="3" style="stroke:#038048;stroke-width:1;"/><text fill="#000000" font-family="sans-serif" font-size="14" lengthAdjust="spacing" textLength="193.8193" x="262.71" y="286.782">ajouterClient(client : Client)</text><ellipse cx="253.71" cy="299.7322" fill="#84BE84" rx="3" ry="3" style="stroke:#038048;stroke-width:1;"/><text fill="#000000" font-family="sans-serif" font-size="14" lengthAdjust="spacing" textLength="215.6465" x="262.71" y="303.0789">supprimerClient(client : Client)</text><ellipse cx="253.71" cy="316.0291" fill="#84BE84" rx="3" ry="3" style="stroke:#038048;stroke-width:1;"/><text fill="#000000" font-family="sans-serif" font-size="14" lengthAdjust="spacing" textLength="183.8184" x="262.71" y="319.3757">getClients() : List&lt;Client&gt;</text><ellipse cx="253.71" cy="332.3259" fill="#84BE84" rx="3" ry="3" style="stroke:#038048;stroke-width:1;"/><text fill="#000000" font-family="sans-serif" font-size="14" lengthAdjust="spacing" textLength="91.4512" x="262.71" y="335.6726">menuClient()</text><ellipse cx="253.71" cy="348.6228" fill="#84BE84" rx="3" ry="3" style="stroke:#038048;stroke-width:1;"/><text fill="#000000" font-family="sans-serif" font-size="14" lengthAdjust="spacing" textLength="146.0088" x="262.71" y="351.9695">createAndShowGUI()</text></g><!--class GestionLivreur--><g class="entity" data-entity="GestionLivreur" data-source-line="66" data-uid="ent0006" id="entity_GestionLivreur"><rect fill="#F1F1F1" height="129.4844" rx="2.5" ry="2.5" style="stroke:#181818;stroke-width:0.5;" width="263.2344" x="518.91" y="221.64"/><ellipse cx="595.0042" cy="237.64" fill="#ADD1B2" rx="11" ry="11" style="stroke:#181818;stroke-width:1;"/><path d="M597.973,243.2806 Q597.3949,243.5775 596.7542,243.7181 Q596.1136,243.8744 595.4105,243.8744 Q592.9105,243.8744 591.5824,242.2338 Q590.2699,240.5775 590.2699,237.4525 Q590.2699,234.3275 591.5824,232.6713 Q592.9105,231.015 595.4105,231.015 Q596.1136,231.015 596.7542,231.1713 Q597.4105,231.3275 597.973,231.6244 L597.973,234.3431 Q597.348,233.765 596.7542,233.4994 Q596.1605,233.2181 595.5355,233.2181 Q594.1917,233.2181 593.5042,234.2963 Q592.8167,235.3588 592.8167,237.4525 Q592.8167,239.5463 593.5042,240.6244 Q594.1917,241.6869 595.5355,241.6869 Q596.1605,241.6869 596.7542,241.4213 Q597.348,241.14 597.973,240.5619 L597.973,243.2806 Z " fill="#000000"/><text fill="#000000" font-family="sans-serif" font-size="14" lengthAdjust="spacing" textLength="102.5459" x="615.5042" y="242.4867">GestionLivreur</text><line style="stroke:#181818;stroke-width:0.5;" x1="519.91" x2="781.1444" y1="253.64" y2="253.64"/><rect fill="none" height="6" style="stroke:#C82930;stroke-width:1;" width="6" x="526.91" y="264.2884"/><text fill="#000000" font-family="sans-serif" font-size="14" lengthAdjust="spacing" textLength="237.2344" x="538.91" y="270.6351">existingDeliverers : List&lt;Livreur&gt;</text><line style="stroke:#181818;stroke-width:0.5;" x1="519.91" x2="781.1444" y1="277.9369" y2="277.9369"/><ellipse cx="529.91" cy="291.5853" fill="#84BE84" rx="3" ry="3" style="stroke:#038048;stroke-width:1;"/><text fill="#000000" font-family="sans-serif" font-size="14" lengthAdjust="spacing" textLength="144.1973" x="538.91" y="294.932">populateDeliverers()</text><ellipse cx="529.91" cy="307.8822" fill="#84BE84" rx="3" ry="3" style="stroke:#038048;stroke-width:1;"/><text fill="#000000" font-family="sans-serif" font-size="14" lengthAdjust="spacing" textLength="99.8936" x="538.91" y="311.2289">menuLivreur()</text><ellipse cx="529.91" cy="324.1791" fill="#84BE84" rx="3" ry="3" style="stroke:#038048;stroke-width:1;"/><text fill="#000000" font-family="sans-serif" font-size="14" lengthAdjust="spacing" textLength="226.543" x="538.91" y="327.5257">showApplyForm(frame : JFrame)</text><ellipse cx="529.91" cy="340.4759" fill="#84BE84" rx="3" ry="3" style="stroke:#038048;stroke-width:1;"/><text fill="#000000" font-family="sans-serif" font-size="14" lengthAdjust="spacing" textLength="225.0322" x="538.91" y="343.8226">showLoginForm(frame : JFrame)</text></g><!--class GestionAdministrateur--><g class="entity" data-entity="GestionAdministrateur" data-source-line="75" data-uid="ent0007" id="entity_GestionAdministrateur"><rect fill="#F1F1F1" height="129.4844" rx="2.5" ry="2.5" style="stroke:#181818;stroke-width:0.5;" width="248.8242" x="239.12" y="7"/><ellipse cx="280.5114" cy="23" fill="#ADD1B2" rx="11" ry="11" style="stroke:#181818;stroke-width:1;"/><path d="M283.4801,28.6406 Q282.902,28.9375 282.2614,29.0781 Q281.6207,29.2344 280.9176,29.2344 Q278.4176,29.2344 277.0895,27.5938 Q275.777,25.9375 275.777,22.8125 Q275.777,19.6875 277.0895,18.0313 Q278.4176,16.375 280.9176,16.375 Q281.6207,16.375 282.2614,16.5313 Q282.9176,16.6875 283.4801,16.9844 L283.4801,19.7031 Q282.8551,19.125 282.2614,18.8594 Q281.6676,18.5781 281.0426,18.5781 Q279.6989,18.5781 279.0114,19.6563 Q278.3239,20.7188 278.3239,22.8125 Q278.3239,24.9063 279.0114,25.9844 Q279.6989,27.0469 281.0426,27.0469 Q281.6676,27.0469 282.2614,26.7813 Q282.8551,26.5 283.4801,25.9219 L283.4801,28.6406 Z " fill="#000000"/><text fill="#000000" font-family="sans-serif" font-size="14" lengthAdjust="spacing" textLength="158.1768" x="300.3761" y="27.8467">GestionAdministrateur</text><line style="stroke:#181818;stroke-width:0.5;" x1="240.12" x2="486.9442" y1="39" y2="39"/><rect fill="none" height="6" style="stroke:#C82930;stroke-width:1;" width="6" x="247.12" y="49.6484"/><text fill="#000000" font-family="sans-serif" font-size="14" lengthAdjust="spacing" textLength="221.1699" x="259.12" y="55.9951">admins : Map&lt;String, String[]&gt;</text><line style="stroke:#181818;stroke-width:0.5;" x1="240.12" x2="486.9442" y1="63.2969" y2="63.2969"/><ellipse cx="250.12" cy="76.9453" fill="#84BE84" rx="3" ry="3" style="stroke:#038048;stroke-width:1;"/><text fill="#000000" font-family="sans-serif" font-size="14" lengthAdjust="spacing" textLength="95.7852" x="259.12" y="80.292">menuAdmin()</text><ellipse cx="250.12" cy="93.2422" fill="#84BE84" rx="3" ry="3" style="stroke:#038048;stroke-width:1;"/><text fill="#000000" font-family="sans-serif" font-size="14" lengthAdjust="spacing" textLength="125.248" x="259.12" y="96.5889">openAdminPage()</text><ellipse cx="250.12" cy="109.5391" fill="#84BE84" rx="3" ry="3" style="stroke:#038048;stroke-width:1;"/><text fill="#000000" font-family="sans-serif" font-size="14" lengthAdjust="spacing" textLength="214.3818" x="259.12" y="112.8857">showClientManagementPage()</text><ellipse cx="250.12" cy="125.8359" fill="#84BE84" rx="3" ry="3" style="stroke:#038048;stroke-width:1;"/><text fill="#000000" font-family="sans-serif" font-size="14" lengthAdjust="spacing" textLength="222.8242" x="259.12" y="129.1826">showLivreurManagementPage()</text></g><!--reverse link GestionClient to Client--><g class="link" data-entity-1="GestionClient" data-entity-2="Client" data-source-line="86" data-uid="lnk8" id="link_GestionClient_Client"><path codeLine="86" d="M363.53,371.48 C363.53,394.41 363.53,408.86 363.53,435.87" fill="none" id="GestionClient-backto-Client" style="stroke:#181818;stroke-width:1;"/><polygon fill="none" points="363.53,359.48,359.53,365.48,363.53,371.48,367.53,365.48,363.53,359.48" style="stroke:#181818;stroke-width:1;"/><text fill="#000000" font-family="sans-serif" font-size="13" lengthAdjust="spacing" textLength="53.3838" x="364.53" y="402.3369">contient</text><text fill="#000000" font-family="sans-serif" font-size="13" lengthAdjust="spacing" textLength="8.271" x="355.1614" y="379.2354">1</text><text fill="#000000" font-family="sans-serif" font-size="13" lengthAdjust="spacing" textLength="36.5625" x="326.7825" y="425.0624">many</text></g><!--reverse link GestionLivreur to Livreur--><g class="link" data-entity-1="GestionLivreur" data-entity-2="Livreur" data-source-line="87" data-uid="lnk9" id="link_GestionLivreur_Livreur"><path codeLine="87" d="M650.53,363.54 C650.53,394.85 650.53,421.99 650.53,460.41" fill="none" id="GestionLivreur-backto-Livreur" style="stroke:#181818;stroke-width:1;"/><polygon fill="none" points="650.53,351.54,646.53,357.54,650.53,363.54,654.53,357.54,650.53,351.54" style="stroke:#181818;stroke-width:1;"/><text fill="#000000" font-family="sans-serif" font-size="13" lengthAdjust="spacing" textLength="53.3838" x="651.53" y="402.3369">contient</text><text fill="#000000" font-family="sans-serif" font-size="13" lengthAdjust="spacing" textLength="8.271" x="642.1318" y="371.1066">1</text><text fill="#000000" font-family="sans-serif" font-size="13" lengthAdjust="spacing" textLength="36.5625" x="613.6715" y="449.6248">many</text></g><!--link GestionAdministrateur to Administrateur--><g class="link" data-entity-1="GestionAdministrateur" data-entity-2="Administrateur" data-source-line="89" data-uid="lnk10" id="link_GestionAdministrateur_Administrateur"><path codeLine="89" d="M286.38,136.83 C250.89,166.3 213.8058,197.1067 179.5958,225.5167" fill="none" id="GestionAdministrateur-to-Administrateur" style="stroke:#181818;stroke-width:1;"/><polygon fill="#181818" points="174.98,229.35,184.4593,226.6773,178.8265,226.1556,179.3483,220.5229,174.98,229.35" style="stroke:#181818;stroke-width:1;"/><text fill="#000000" font-family="sans-serif" font-size="13" lengthAdjust="spacing" textLength="70.6748" x="244.53" y="179.5569">authentifie</text></g><!--link GestionAdministrateur to GestionClient--><g class="link" data-entity-1="GestionAdministrateur" data-entity-2="GestionClient" data-source-line="90" data-uid="lnk11" id="link_GestionAdministrateur_GestionClient"><path codeLine="90" d="M363.53,136.83 C363.53,160.92 363.53,182.46 363.53,207.24" fill="none" id="GestionAdministrateur-to-GestionClient" style="stroke:#181818;stroke-width:1;"/><polygon fill="#181818" points="363.53,213.24,367.53,204.24,363.53,208.24,359.53,204.24,363.53,213.24" style="stroke:#181818;stroke-width:1;"/><text fill="#000000" font-family="sans-serif" font-size="13" lengthAdjust="spacing" textLength="38.9429" x="364.53" y="179.5569">utilise</text></g><!--link GestionAdministrateur to GestionLivreur--><g class="link" data-entity-1="GestionAdministrateur" data-entity-2="GestionLivreur" data-source-line="91" data-uid="lnk12" id="link_GestionAdministrateur_GestionLivreur"><path codeLine="91" d="M450.03,136.83 C486.18,163.61 523.2585,191.0889 559.3885,217.8489" fill="none" id="GestionAdministrateur-to-GestionLivreur" style="stroke:#181818;stroke-width:1;"/><polygon fill="#181818" points="564.21,221.42,559.3584,212.849,560.1921,218.4441,554.597,219.2777,564.21,221.42" style="stroke:#181818;stroke-width:1;"/><text fill="#000000" font-family="sans-serif" font-size="13" lengthAdjust="spacing" textLength="38.9429" x="508.53" y="179.5569">utilise</text></g><!--SRC=[bLNBRjim4BphAmXVOgFreLSZ223aXHQsOI3egUY1a3OE2_41aaeR5FsWVaT_h4kHaYcQbXsTfDrPxkmCILqjquVSDjGOC6Jpxwzbe0qvWXH5vJ28P20i-LqGV9P4I4vMvCbg9lOXf3Haei0fQzAWQ3becKQvj7UmSuJI3AqrZC9T_0FPWzrAFb-CyLryrx79fkuTfMncs_7AfZO3kMowz0pZN4WQpp6MPd581Pg9TX70ansh6AK3uqJG213nvhNA8NhggSYBuazl_fgzQcZru7ubQuTZmavwV-bscB3t5ZjrelQzpfcxVRVfazPr_G_ZliUv2TVFc7g18sNDcM36QcfZOxBovixL9SBajpnIk3fzaQ1GZs0ia-BqLH80oOrITPy66wrnhckVlUc9qX-ojQ1zTEwn2FNVWtIjKfhnSp2thNopRgvHEu_W8DgmHbzKQK2fIr4_lSYVZry_poCpma3fAO5Vk39ATWSDUmNjhjVGBI27wPHKROFB7v13NqSbm8UOGGgbKitRWzHy_gmfTyv-UN0lCMOjzqnaCIdr4zk9kh1ZlQ7gsll_CUo3Rzy7zevYjy10K2hmI-xe7aQqlQeRAZ21TVO846OzGkItNMcCh1Xr8sJ_NUEjDliq8nAhPfoAjrd_IrlXTIQiUoqI8nDy7uuAYhn-o-LDUa9NXBRs1MlOCuE9iZ7Z5MajQvYveEB0BfJy1m00]--></g></svg>