<svg xmlns="http://www.w3.org/2000/svg" xmlns:xlink="http://www.w3.org/1999/xlink" contentStyleType="text/css" data-diagram-type="DESCRIPTION" height="348px" preserveAspectRatio="none" style="width:1929px;height:348px;background:#FFFFFF;" version="1.1" viewBox="0 0 1929 348" width="1929px" zoomAndPan="magnify"><defs/><g><!--cluster System--><g class="cluster" data-entity="System" data-source-line="2" data-uid="ent0002" id="cluster_System"><rect fill="none" height="213.52" rx="2.5" ry="2.5" style="stroke:#181818;stroke-width:1;" width="1890" x="33.64" y="128.8"/><text fill="#000000" font-family="sans-serif" font-size="14" font-weight="bold" lengthAdjust="spacing" textLength="246.333" x="855.4735" y="143.7951">Syst&#232;me de Livraison de Repas</text></g><!--entity UC1--><g class="entity" data-entity="UC1" data-source-line="4" data-uid="ent0003" id="entity_UC1"><ellipse cx="325.6371" cy="188.4994" fill="#F1F1F1" rx="82.7471" ry="18.9494" style="stroke:#181818;stroke-width:0.5;"/><text fill="#000000" font-family="sans-serif" font-size="14" lengthAdjust="spacing" textLength="137.1084" x="257.0829" y="193.1479">Se connecter Client</text></g><!--entity UC2--><g class="entity" data-entity="UC2" data-source-line="5" data-uid="ent0004" id="entity_UC2"><ellipse cx="446.6407" cy="308.2641" fill="#F1F1F1" rx="74.7207" ry="17.3441" style="stroke:#181818;stroke-width:0.5;"/><text fill="#000000" font-family="sans-serif" font-size="14" lengthAdjust="spacing" textLength="118.0498" x="387.6158" y="312.9126">Cr&#233;er un compte</text></g><!--entity UC4--><g class="entity" data-entity="UC4" data-source-line="6" data-uid="ent0005" id="entity_UC4"><ellipse cx="128.6358" cy="188.5012" fill="#F1F1F1" rx="79.2558" ry="18.2512" style="stroke:#181818;stroke-width:0.5;"/><text fill="#000000" font-family="sans-serif" font-size="14" lengthAdjust="spacing" textLength="128.9189" x="64.1763" y="193.1496">Passer commande</text></g><!--entity UC5--><g class="entity" data-entity="UC5" data-source-line="9" data-uid="ent0006" id="entity_UC5"><ellipse cx="869.6437" cy="188.5007" fill="#F1F1F1" rx="86.4037" ry="19.6807" style="stroke:#181818;stroke-width:0.5;"/><text fill="#000000" font-family="sans-serif" font-size="14" lengthAdjust="spacing" textLength="145.5508" x="796.8683" y="193.1492">Se connecter Livreur</text></g><!--entity UC6--><g class="entity" data-entity="UC6" data-source-line="10" data-uid="ent0007" id="entity_UC6"><ellipse cx="486.6405" cy="188.5036" fill="#F1F1F1" rx="43.2505" ry="14.5236" style="stroke:#181818;stroke-width:0.5;"/><text fill="#000000" font-family="sans-serif" font-size="14" lengthAdjust="spacing" textLength="56.9229" x="458.1791" y="193.1521">Postuler</text></g><!--entity UC7--><g class="entity" data-entity="UC7" data-source-line="11" data-uid="ent0008" id="entity_UC7"><ellipse cx="656.6443" cy="188.5009" fill="#F1F1F1" rx="91.6043" ry="20.7209" style="stroke:#181818;stroke-width:0.5;"/><text fill="#000000" font-family="sans-serif" font-size="14" lengthAdjust="spacing" textLength="157.3633" x="577.9627" y="193.1493">Consulter commandes</text></g><!--entity UC8--><g class="entity" data-entity="UC8" data-source-line="14" data-uid="ent0009" id="entity_UC8"><ellipse cx="1632.6385" cy="188.4957" fill="#F1F1F1" rx="111.5285" ry="24.7057" style="stroke:#181818;stroke-width:0.5;"/><text fill="#000000" font-family="sans-serif" font-size="14" lengthAdjust="spacing" textLength="201.1816" x="1532.0477" y="193.1441">Se connecter Administrateur</text></g><!--entity GC--><g class="entity" data-entity="GC" data-source-line="15" data-uid="ent0010" id="entity_GC"><ellipse cx="1843.6367" cy="188.4993" fill="#F1F1F1" rx="64.3967" ry="15.2793" style="stroke:#181818;stroke-width:0.5;"/><text fill="#000000" font-family="sans-serif" font-size="14" lengthAdjust="spacing" textLength="91.8613" x="1797.706" y="193.1478">G&#233;rer Clients</text></g><!--entity GL--><g class="entity" data-entity="GL" data-source-line="16" data-uid="ent0011" id="entity_GL"><ellipse cx="1224.6353" cy="188.5031" fill="#F1F1F1" rx="67.6153" ry="15.9231" style="stroke:#181818;stroke-width:0.5;"/><text fill="#000000" font-family="sans-serif" font-size="14" lengthAdjust="spacing" textLength="100.3037" x="1174.4834" y="193.1515">G&#233;rer Livreurs</text></g><!--entity GR--><g class="entity" data-entity="GR" data-source-line="17" data-uid="ent0012" id="entity_GR"><ellipse cx="1406.643" cy="188.5046" fill="#F1F1F1" rx="79.123" ry="18.2246" style="stroke:#181818;stroke-width:0.5;"/><text fill="#000000" font-family="sans-serif" font-size="14" lengthAdjust="spacing" textLength="128.6045" x="1342.3407" y="193.153">G&#233;rer Restaurants</text></g><!--entity AC--><g class="entity" data-entity="AC" data-source-line="20" data-uid="ent0013" id="entity_AC"><ellipse cx="1841.6422" cy="308.2624" fill="#F1F1F1" rx="65.8622" ry="15.5724" style="stroke:#181818;stroke-width:0.5;"/><text fill="#000000" font-family="sans-serif" font-size="14" lengthAdjust="spacing" textLength="95.7441" x="1793.7702" y="312.9109">Ajouter Client</text></g><!--entity MC--><g class="entity" data-entity="MC" data-source-line="21" data-uid="ent0014" id="entity_MC"><ellipse cx="1487.6353" cy="308.2631" fill="#F1F1F1" rx="68.1153" ry="16.0231" style="stroke:#181818;stroke-width:0.5;"/><text fill="#000000" font-family="sans-serif" font-size="14" lengthAdjust="spacing" textLength="101.5889" x="1436.8409" y="312.9115">Modifier Client</text></g><!--entity SC--><g class="entity" data-entity="SC" data-source-line="22" data-uid="ent0015" id="entity_SC"><ellipse cx="1665.6386" cy="308.2637" fill="#F1F1F1" rx="74.7686" ry="17.3537" style="stroke:#181818;stroke-width:0.5;"/><text fill="#000000" font-family="sans-serif" font-size="14" lengthAdjust="spacing" textLength="118.166" x="1606.5556" y="312.9122">Supprimer Client</text></g><!--entity AL--><g class="entity" data-entity="AL" data-source-line="25" data-uid="ent0016" id="entity_AL"><ellipse cx="1315.6435" cy="308.2567" fill="#F1F1F1" rx="69.1335" ry="16.2267" style="stroke:#181818;stroke-width:0.5;"/><text fill="#000000" font-family="sans-serif" font-size="14" lengthAdjust="spacing" textLength="104.1865" x="1263.5502" y="312.9051">Ajouter Livreur</text></g><!--entity ML--><g class="entity" data-entity="ML" data-source-line="26" data-uid="ent0017" id="entity_ML"><ellipse cx="948.6391" cy="308.2618" fill="#F1F1F1" rx="71.4591" ry="16.6918" style="stroke:#181818;stroke-width:0.5;"/><text fill="#000000" font-family="sans-serif" font-size="14" lengthAdjust="spacing" textLength="110.0313" x="893.6234" y="312.9103">Modifier Livreur</text></g><!--entity SL--><g class="entity" data-entity="SL" data-source-line="27" data-uid="ent0018" id="entity_SL"><ellipse cx="1133.6418" cy="308.2564" fill="#F1F1F1" rx="78.2818" ry="18.0564" style="stroke:#181818;stroke-width:0.5;"/><text fill="#000000" font-family="sans-serif" font-size="14" lengthAdjust="spacing" textLength="126.6084" x="1070.3376" y="312.9048">Supprimer Livreur</text></g><!--entity VE--><g class="entity" data-entity="VE" data-source-line="30" data-uid="ent0019" id="entity_VE"><ellipse cx="1056.6421" cy="188.4964" fill="#F1F1F1" rx="65.2321" ry="15.4464" style="stroke:#181818;stroke-width:0.5;"/><text fill="#000000" font-family="sans-serif" font-size="14" lengthAdjust="spacing" textLength="94.083" x="1009.6006" y="193.1448">V&#233;rifier email</text></g><!--entity Client--><g class="entity" data-entity="Client" data-source-line="34" data-uid="ent0020" id="entity_Client"><ellipse cx="128.6351" cy="14" fill="#F1F1F1" rx="8" ry="8" style="stroke:#181818;stroke-width:0.5;"/><path d="M128.6351,22 L128.6351,49 M115.6351,30 L141.6351,30 M128.6351,49 L115.6351,64 M128.6351,49 L141.6351,64" fill="none" style="stroke:#181818;stroke-width:0.5;"/><text fill="#000000" font-family="sans-serif" font-size="14" lengthAdjust="spacing" textLength="40.5303" x="108.37" y="78.4951">Client</text></g><!--entity Livreur--><g class="entity" data-entity="Livreur" data-source-line="35" data-uid="ent0021" id="entity_Livreur"><ellipse cx="656.6363" cy="14" fill="#F1F1F1" rx="8" ry="8" style="stroke:#181818;stroke-width:0.5;"/><path d="M656.6363,22 L656.6363,49 M643.6363,30 L669.6363,30 M656.6363,49 L643.6363,64 M656.6363,49 L669.6363,64" fill="none" style="stroke:#181818;stroke-width:0.5;"/><text fill="#000000" font-family="sans-serif" font-size="14" lengthAdjust="spacing" textLength="48.9727" x="632.15" y="78.4951">Livreur</text></g><!--entity Administrateur--><g class="entity" data-entity="Administrateur" data-source-line="36" data-uid="ent0022" id="entity_Administrateur"><ellipse cx="1518.6418" cy="14" fill="#F1F1F1" rx="8" ry="8" style="stroke:#181818;stroke-width:0.5;"/><path d="M1518.6418,22 L1518.6418,49 M1505.6418,30 L1531.6418,30 M1518.6418,49 L1505.6418,64 M1518.6418,49 L1531.6418,64" fill="none" style="stroke:#181818;stroke-width:0.5;"/><text fill="#000000" font-family="sans-serif" font-size="14" lengthAdjust="spacing" textLength="104.6035" x="1466.34" y="78.4951">Administrateur</text></g><!--link Client to UC1--><g class="link" data-entity-1="Client" data-entity-2="UC1" data-source-line="39" data-uid="lnk23" id="link_Client_UC1"><path d="M149.35,59.67 C186.1,86.31 257.6527,138.1977 296.6927,166.5077" fill="none" id="Client-to-UC1" style="stroke:#181818;stroke-width:1;"/><polygon fill="#181818" points="301.55,170.03,296.6122,161.5084,297.5022,167.0948,291.9158,167.9848,301.55,170.03" style="stroke:#181818;stroke-width:1;"/></g><!--link Client to UC2--><g class="link" data-entity-1="Client" data-entity-2="UC2" data-source-line="40" data-uid="lnk24" id="link_Client_UC2"><path d="M108.13,53.78 C84.67,65.49 47.46,88.26 31.64,120.8 C13.68,157.73 6,181.12 31.64,213.21 C74.05,266.31 263.9164,291.1073 370.7164,301.1673" fill="none" id="Client-to-UC2" style="stroke:#181818;stroke-width:1;"/><polygon fill="#181818" points="376.69,301.73,368.1048,296.9036,371.712,301.2611,367.3545,304.8684,376.69,301.73" style="stroke:#181818;stroke-width:1;"/></g><!--link Client to UC4--><g class="link" data-entity-1="Client" data-entity-2="UC4" data-source-line="41" data-uid="lnk25" id="link_Client_UC4"><path d="M128.64,82.18 C128.64,110.62 128.64,142.39 128.64,164.11" fill="none" id="Client-to-UC4" style="stroke:#181818;stroke-width:1;"/><polygon fill="#181818" points="128.64,170.11,132.64,161.11,128.64,165.11,124.64,161.11,128.64,170.11" style="stroke:#181818;stroke-width:1;"/></g><!--link Livreur to UC5--><g class="link" data-entity-1="Livreur" data-entity-2="UC5" data-source-line="43" data-uid="lnk26" id="link_Livreur_UC5"><path d="M681.49,61.31 C721.76,88.33 795.9869,138.108 837.6169,166.028" fill="none" id="Livreur-to-UC5" style="stroke:#181818;stroke-width:1;"/><polygon fill="#181818" points="842.6,169.37,837.3534,161.035,838.4474,166.585,832.8974,167.6791,842.6,169.37" style="stroke:#181818;stroke-width:1;"/></g><!--link Livreur to UC6--><g class="link" data-entity-1="Livreur" data-entity-2="UC6" data-source-line="44" data-uid="lnk27" id="link_Livreur_UC6"><path d="M631.69,59.84 C608.82,74.27 574.54,97.2 547.64,120.8 C528.4,137.66 512.7487,155.4621 501.1387,169.5321" fill="none" id="Livreur-to-UC6" style="stroke:#181818;stroke-width:1;"/><polygon fill="#181818" points="497.32,174.16,506.1334,169.764,500.5023,170.3034,499.9629,164.6724,497.32,174.16" style="stroke:#181818;stroke-width:1;"/></g><!--link Livreur to UC7--><g class="link" data-entity-1="Livreur" data-entity-2="UC7" data-source-line="45" data-uid="lnk28" id="link_Livreur_UC7"><path d="M656.64,82.18 C656.64,109.46 656.64,139.33 656.64,161.38" fill="none" id="Livreur-to-UC7" style="stroke:#181818;stroke-width:1;"/><polygon fill="#181818" points="656.64,167.38,660.64,158.38,656.64,162.38,652.64,158.38,656.64,167.38" style="stroke:#181818;stroke-width:1;"/></g><!--link Administrateur to UC8--><g class="link" data-entity-1="Administrateur" data-entity-2="UC8" data-source-line="47" data-uid="lnk29" id="link_Administrateur_UC8"><path d="M1548.59,82.18 C1569.3,108.14 1592.478,137.1798 1610.198,159.3898" fill="none" id="Administrateur-to-UC8" style="stroke:#181818;stroke-width:1;"/><polygon fill="#181818" points="1613.94,164.08,1611.4538,154.5501,1610.8217,160.1715,1605.2003,159.5394,1613.94,164.08" style="stroke:#181818;stroke-width:1;"/></g><!--link Administrateur to GC--><g class="link" data-entity-1="Administrateur" data-entity-2="GC" data-source-line="48" data-uid="lnk30" id="link_Administrateur_GC"><path d="M1571.16,55.04 C1621.97,66.46 1700.11,87.72 1761.64,120.8 C1788.15,135.05 1810.0336,154.2421 1825.4436,169.1921" fill="none" id="Administrateur-to-GC" style="stroke:#181818;stroke-width:1;"/><polygon fill="#181818" points="1829.75,173.37,1826.0756,164.2322,1826.1613,169.8884,1820.5051,169.9741,1829.75,173.37" style="stroke:#181818;stroke-width:1;"/></g><!--link Administrateur to GL--><g class="link" data-entity-1="Administrateur" data-entity-2="GL" data-source-line="49" data-uid="lnk31" id="link_Administrateur_GL"><path d="M1465.98,58.78 C1422.48,71.63 1359.93,92.84 1309.64,120.8 C1283.4,135.38 1261.2075,153.7627 1244.9075,168.5227" fill="none" id="Administrateur-to-GL" style="stroke:#181818;stroke-width:1;"/><polygon fill="#181818" points="1240.46,172.55,1249.8162,169.474,1244.1663,169.1939,1244.4464,163.544,1240.46,172.55" style="stroke:#181818;stroke-width:1;"/></g><!--link Administrateur to GR--><g class="link" data-entity-1="Administrateur" data-entity-2="GR" data-source-line="50" data-uid="lnk32" id="link_Administrateur_GR"><path d="M1489.21,82.18 C1466.92,110.62 1441.0021,143.6683 1423.9721,165.3883" fill="none" id="Administrateur-to-GR" style="stroke:#181818;stroke-width:1;"/><polygon fill="#181818" points="1420.27,170.11,1428.971,165.4956,1423.3551,166.1753,1422.6754,160.5594,1420.27,170.11" style="stroke:#181818;stroke-width:1;"/></g><!--link GC to AC--><g class="link" data-entity-1="GC" data-entity-2="AC" data-source-line="53" data-uid="lnk33" id="link_GC_AC"><path d="M1843.39,203.94 C1843.01,226.42 1842.3828,263.5609 1841.9928,286.3309" fill="none" id="GC-to-AC" style="stroke:#181818;stroke-width:1;stroke-dasharray:7.0,7.0;"/><polygon fill="#181818" points="1841.89,292.33,1846.0435,283.3998,1841.9756,287.3307,1838.0447,283.2628,1841.89,292.33" style="stroke:#181818;stroke-width:1;"/><text fill="#000000" font-family="sans-serif" font-size="13" lengthAdjust="spacing" textLength="63.0068" x="1843.64" y="256.2769">&#171;include&#187;</text></g><!--link GC to MC--><g class="link" data-entity-1="GC" data-entity-2="MC" data-source-line="54" data-uid="lnk34" id="link_GC_MC"><path d="M1803.86,200.86 C1767.66,211.34 1712.83,227.61 1665.64,243.21 C1615.59,259.75 1563.9511,278.6315 1528.1911,291.9815" fill="none" id="GC-to-MC" style="stroke:#181818;stroke-width:1;stroke-dasharray:7.0,7.0;"/><polygon fill="#181818" points="1522.57,294.08,1532.4006,294.6797,1527.2542,292.3313,1529.6026,287.1849,1522.57,294.08" style="stroke:#181818;stroke-width:1;"/><text fill="#000000" font-family="sans-serif" font-size="13" lengthAdjust="spacing" textLength="63.0068" x="1666.64" y="256.2769">&#171;include&#187;</text></g><!--link GC to SC--><g class="link" data-entity-1="GC" data-entity-2="SC" data-source-line="55" data-uid="lnk35" id="link_GC_SC"><path d="M1822.87,203.24 C1789.67,225.2 1729.8237,264.7989 1694.6737,288.0589" fill="none" id="GC-to-SC" style="stroke:#181818;stroke-width:1;stroke-dasharray:7.0,7.0;"/><polygon fill="#181818" points="1689.67,291.37,1699.3829,289.7391,1693.8397,288.6108,1694.9681,283.0676,1689.67,291.37" style="stroke:#181818;stroke-width:1;"/><text fill="#000000" font-family="sans-serif" font-size="13" lengthAdjust="spacing" textLength="63.0068" x="1760.64" y="256.2769">&#171;include&#187;</text></g><!--link GL to AL--><g class="link" data-entity-1="GL" data-entity-2="AL" data-source-line="58" data-uid="lnk36" id="link_GL_AL"><path d="M1236.16,204.42 C1253.57,226.94 1282.732,264.6717 1300.252,287.3517" fill="none" id="GL-to-AL" style="stroke:#181818;stroke-width:1;stroke-dasharray:7.0,7.0;"/><polygon fill="#181818" points="1303.92,292.1,1301.5836,282.5323,1300.8634,288.1431,1295.2525,287.4229,1303.92,292.1" style="stroke:#181818;stroke-width:1;"/><text fill="#000000" font-family="sans-serif" font-size="13" lengthAdjust="spacing" textLength="63.0068" x="1278.64" y="256.2769">&#171;include&#187;</text></g><!--link GL to ML--><g class="link" data-entity-1="GL" data-entity-2="ML" data-source-line="59" data-uid="lnk37" id="link_GL_ML"><path d="M1192.78,202.91 C1167.08,213.75 1130.01,229.4 1097.64,243.21 C1057.62,260.27 1017.1389,277.6926 986.9689,290.7126" fill="none" id="GL-to-ML" style="stroke:#181818;stroke-width:1;stroke-dasharray:7.0,7.0;"/><polygon fill="#181818" points="981.46,293.09,991.3083,293.1965,986.0508,291.1088,988.1384,285.8513,981.46,293.09" style="stroke:#181818;stroke-width:1;"/><text fill="#000000" font-family="sans-serif" font-size="13" lengthAdjust="spacing" textLength="63.0068" x="1098.64" y="256.2769">&#171;include&#187;</text></g><!--link GL to SL--><g class="link" data-entity-1="GL" data-entity-2="SL" data-source-line="60" data-uid="lnk38" id="link_GL_SL"><path d="M1213.11,204.42 C1196.18,226.33 1168.3384,262.3521 1150.4984,285.4421" fill="none" id="GL-to-SL" style="stroke:#181818;stroke-width:1;stroke-dasharray:7.0,7.0;"/><polygon fill="#181818" points="1146.83,290.19,1155.4979,285.5137,1149.887,286.2334,1149.1673,280.6225,1146.83,290.19" style="stroke:#181818;stroke-width:1;"/><text fill="#000000" font-family="sans-serif" font-size="13" lengthAdjust="spacing" textLength="63.0068" x="1182.64" y="256.2769">&#171;include&#187;</text></g><!--link VE to UC2--><g class="link" data-entity-1="VE" data-entity-2="UC2" data-source-line="63" data-uid="lnk39" id="link_VE_UC2"><path d="M1018.42,201.3 C1004.41,205.39 988.38,209.79 973.64,213.21 C807.03,251.76 625.472,280.8176 526.512,295.6176" fill="none" id="VE-to-UC2" style="stroke:#181818;stroke-width:1;stroke-dasharray:7.0,7.0;"/><polygon fill="none" points="508.71,298.28,527.3995,301.5516,525.6246,289.6836,508.71,298.28" style="stroke:#181818;stroke-width:1;"/><text fill="#000000" font-family="sans-serif" font-size="13" lengthAdjust="spacing" textLength="61.1851" x="830.64" y="256.2769">&#171;extend&#187;</text></g><!--SRC=[ZLHDQzmm4BtxLmovx2aB3VaY1CFYbhrueQn9xiAU51LPDXgfjBJzFmtz2Rrb_rX7jhHOZZVaP3HwUk-DzCOh-7XuVf9QMjbfQ1pG3xA7For2tMcBMcWBjdC42WbgGT2id9LAal07CeEr5VgBGZYhui46ePJVZ93a6H7ss0iw0pxh8TZ2pmnW1G-4df1f-ywPWRzG4hKbtdQ4VezP1oEQPT24_O7geVWmXHNcyCm0fndTzXO3vcAA-Io86CE0LkWcGYuPSigFRmETEMqe00BLLQBMaNKAuzvruhRJv9ITcA40ktd3pQPf-Pt86c7VD9NY0l7j5BuzF9lZTOxIss814FiV4UK2OezaXJFYIBEF3N2ih92AGEfQSNuQeNax4PxoRRvsRlR4cyJIhclaaqmHkmHHkRutiaqXLV4UGqiF7HrDttXJBbgQGdRbigSffYgZgM8-KT3r_gDH0Mh0xpo252RpTSYdIe_SoUW6Msvpq7dyn3A_isoL3ZbdITHZXlZRnViAYs0qhD8mUQeDKLVBmIonHsimiW7QXL_4I0xdv_amjCdo8brUPbbG3uMhsVfwjhx9ijHWgDykbJdYIzLoiRhthUvHXJvV_ewnuT_Poxzn96TPtXQmNkSSMhY3-_i0plDOtvseL_FwEsMFYTsMesuvvn_hknFrgZojwsM7v3LUzGvcqG8U9B-d1DISoF48ltcCPSQnMwz_3UyxY8nSUVuV]--></g></svg>