<svg xmlns="http://www.w3.org/2000/svg" xmlns:xlink="http://www.w3.org/1999/xlink" contentStyleType="text/css" data-diagram-type="SEQUENCE" height="444px" preserveAspectRatio="none" style="width:697px;height:444px;background:#FFFFFF;" version="1.1" viewBox="0 0 697 444" width="697px" zoomAndPan="magnify"><defs/><g><rect fill="none" height="90.2031" style="stroke:#000000;stroke-width:1.5;" width="568.2266" x="122.4409" y="256.9609"/><g><title>Livreur</title><rect fill="#000000" fill-opacity="0.00000" height="282.8672" width="8" x="28.4863" y="81.2969"/><line style="stroke:#181818;stroke-width:0.5;stroke-dasharray:5.0,5.0;" x1="32" x2="32" y1="81.2969" y2="364.1641"/></g><g><title>GestionLivreur</title><rect fill="#000000" fill-opacity="0.00000" height="282.8672" width="8" x="186.7139" y="81.2969"/><line style="stroke:#181818;stroke-width:0.5;stroke-dasharray:5.0,5.0;" x1="190.4409" x2="190.4409" y1="81.2969" y2="364.1641"/></g><g><title>JOptionPane</title><rect fill="#000000" fill-opacity="0.00000" height="282.8672" width="8" x="626.9873" y="81.2969"/><line style="stroke:#181818;stroke-width:0.5;stroke-dasharray:5.0,5.0;" x1="630.3071" x2="630.3071" y1="81.2969" y2="364.1641"/></g><g class="participant participant-head" data-participant="L"><text fill="#000000" font-family="sans-serif" font-size="14" lengthAdjust="spacing" textLength="48.9727" x="5" y="77.9951">Livreur</text><ellipse cx="32.4863" cy="13.5" fill="#E2E2F0" rx="8" ry="8" style="stroke:#181818;stroke-width:0.5;"/><path d="M32.4863,21.5 L32.4863,48.5 M19.4863,29.5 L45.4863,29.5 M32.4863,48.5 L19.4863,63.5 M32.4863,48.5 L45.4863,63.5" fill="none" style="stroke:#181818;stroke-width:0.5;"/></g><g class="participant participant-tail" data-participant="L"><text fill="#000000" font-family="sans-serif" font-size="14" lengthAdjust="spacing" textLength="48.9727" x="5" y="376.1592">Livreur</text><ellipse cx="32.4863" cy="387.9609" fill="#E2E2F0" rx="8" ry="8" style="stroke:#181818;stroke-width:0.5;"/><path d="M32.4863,395.9609 L32.4863,422.9609 M19.4863,403.9609 L45.4863,403.9609 M32.4863,422.9609 L19.4863,437.9609 M32.4863,422.9609 L45.4863,437.9609" fill="none" style="stroke:#181818;stroke-width:0.5;"/></g><g class="participant participant-head" data-participant="GL"><rect fill="#E2E2F0" height="30.2969" rx="2.5" ry="2.5" style="stroke:#181818;stroke-width:0.5;" width="116.5459" x="132.4409" y="50"/><text fill="#000000" font-family="sans-serif" font-size="14" lengthAdjust="spacing" textLength="102.5459" x="139.4409" y="69.9951">GestionLivreur</text></g><g class="participant participant-tail" data-participant="GL"><rect fill="#E2E2F0" height="30.2969" rx="2.5" ry="2.5" style="stroke:#181818;stroke-width:0.5;" width="116.5459" x="132.4409" y="363.1641"/><text fill="#000000" font-family="sans-serif" font-size="14" lengthAdjust="spacing" textLength="102.5459" x="139.4409" y="383.1592">GestionLivreur</text></g><g class="participant participant-head" data-participant="JP"><rect fill="#E2E2F0" height="30.2969" rx="2.5" ry="2.5" style="stroke:#181818;stroke-width:0.5;" width="99.3604" x="581.3071" y="50"/><text fill="#000000" font-family="sans-serif" font-size="14" lengthAdjust="spacing" textLength="85.3604" x="588.3071" y="69.9951">JOptionPane</text></g><g class="participant participant-tail" data-participant="JP"><rect fill="#E2E2F0" height="30.2969" rx="2.5" ry="2.5" style="stroke:#181818;stroke-width:0.5;" width="99.3604" x="581.3071" y="363.1641"/><text fill="#000000" font-family="sans-serif" font-size="14" lengthAdjust="spacing" textLength="85.3604" x="588.3071" y="383.1592">JOptionPane</text></g><g class="message" data-participant-1="L" data-participant-2="GL"><polygon fill="#181818" points="178.7139,108.4297,188.7139,112.4297,178.7139,116.4297,182.7139,112.4297" style="stroke:#181818;stroke-width:1;"/><line style="stroke:#181818;stroke-width:1;" x1="32.4863" x2="184.7139" y1="112.4297" y2="112.4297"/><text fill="#000000" font-family="sans-serif" font-size="13" lengthAdjust="spacing" textLength="134.2275" x="39.4863" y="107.3638">Clique sur "Postuler"</text></g><g class="message" data-participant-1="GL" data-participant-2="JP"><polygon fill="#181818" points="618.9873,137.5625,628.9873,141.5625,618.9873,145.5625,622.9873,141.5625" style="stroke:#181818;stroke-width:1;"/><line style="stroke:#181818;stroke-width:1;" x1="190.7139" x2="624.9873" y1="141.5625" y2="141.5625"/><text fill="#000000" font-family="sans-serif" font-size="13" lengthAdjust="spacing" textLength="234.8569" x="197.7139" y="136.4966">Affiche le formulaire de candidature</text></g><g class="message" data-participant-1="L" data-participant-2="JP"><polygon fill="#181818" points="618.9873,166.6953,628.9873,170.6953,618.9873,174.6953,622.9873,170.6953" style="stroke:#181818;stroke-width:1;"/><line style="stroke:#181818;stroke-width:1;" x1="32.4863" x2="624.9873" y1="170.6953" y2="170.6953"/><text fill="#000000" font-family="sans-serif" font-size="13" lengthAdjust="spacing" textLength="574.501" x="39.4863" y="165.6294">Saisie les informations (ID, nom, pr&#233;nom, email, adresse, code postal, motorisation, CV)</text></g><g class="message" data-participant-1="JP" data-participant-2="GL"><polygon fill="#181818" points="201.7139,195.8281,191.7139,199.8281,201.7139,203.8281,197.7139,199.8281" style="stroke:#181818;stroke-width:1;"/><line style="stroke:#181818;stroke-width:1;" x1="195.7139" x2="629.9873" y1="199.8281" y2="199.8281"/><text fill="#000000" font-family="sans-serif" font-size="13" lengthAdjust="spacing" textLength="216.2202" x="207.7139" y="194.7622">Retourne les informations saisies</text></g><g class="message" data-participant-1="GL" data-participant-2="GL"><line style="stroke:#181818;stroke-width:1;" x1="190.7139" x2="232.7139" y1="228.9609" y2="228.9609"/><line style="stroke:#181818;stroke-width:1;" x1="232.7139" x2="232.7139" y1="228.9609" y2="241.9609"/><line style="stroke:#181818;stroke-width:1;" x1="191.7139" x2="232.7139" y1="241.9609" y2="241.9609"/><polygon fill="#181818" points="201.7139,237.9609,191.7139,241.9609,201.7139,245.9609,197.7139,241.9609" style="stroke:#181818;stroke-width:1;"/><text fill="#000000" font-family="sans-serif" font-size="13" lengthAdjust="spacing" textLength="256.896" x="197.7139" y="223.895">V&#233;rifie validit&#233; des champs obligatoires</text></g><path d="M122.4409,256.9609 L186.8838,256.9609 L186.8838,264.0938 L176.8838,274.0938 L122.4409,274.0938 L122.4409,256.9609" fill="#EEEEEE" style="stroke:#000000;stroke-width:1.5;"/><rect fill="none" height="90.2031" style="stroke:#000000;stroke-width:1.5;" width="568.2266" x="122.4409" y="256.9609"/><text fill="#000000" font-family="sans-serif" font-size="13" font-weight="bold" lengthAdjust="spacing" textLength="19.4429" x="137.4409" y="270.0278">alt</text><text fill="#000000" font-family="sans-serif" font-size="11" font-weight="bold" lengthAdjust="spacing" textLength="94.9502" x="201.8838" y="269.1714">[Validation OK]</text><g class="message" data-participant-1="GL" data-participant-2="JP"><polygon fill="#181818" points="618.9873,291.2266,628.9873,295.2266,618.9873,299.2266,622.9873,295.2266" style="stroke:#181818;stroke-width:1;"/><line style="stroke:#181818;stroke-width:1;" x1="190.7139" x2="624.9873" y1="295.2266" y2="295.2266"/><text fill="#000000" font-family="sans-serif" font-size="13" lengthAdjust="spacing" textLength="284.0322" x="197.7139" y="290.1606">Affiche "Candidature envoy&#233;e avec succ&#232;s"</text></g><line style="stroke:#000000;stroke-width:1;stroke-dasharray:2.0,2.0;" x1="122.4409" x2="690.6675" y1="304.2266" y2="304.2266"/><text fill="#000000" font-family="sans-serif" font-size="11" font-weight="bold" lengthAdjust="spacing" textLength="94.9502" x="127.4409" y="314.437">[Validation KO]</text><g class="message" data-participant-1="GL" data-participant-2="JP"><polygon fill="#181818" points="618.9873,335.1641,628.9873,339.1641,618.9873,343.1641,622.9873,339.1641" style="stroke:#181818;stroke-width:1;"/><line style="stroke:#181818;stroke-width:1;" x1="190.7139" x2="624.9873" y1="339.1641" y2="339.1641"/><text fill="#000000" font-family="sans-serif" font-size="13" lengthAdjust="spacing" textLength="401.064" x="197.7139" y="334.0981">Affiche message d'erreur (informations manquantes/invalide)</text></g><!--SRC=[TP7BQiCm44Nt-eh1coRWqdqMXP92g1E8QI7xgJnE1lHmD9AXVrH_Xt-iikaZVMabD4Tpxvr17Ns0OiTze1GAG86TwZ14rjoXYr1iI29xTqbiVY3LlfkG6XtDzQfMQWVNjnbSmThmEH58oZArbvWCXK9jvdfLh-2kRLcV20n1wuDD1ZaGD0GQNSCDnXH8VT9FoC8JBC1kud5I5bWyt9VWl2sX2-CmNyWYcnAm2IH29MYVctRP0UPNwtDkblbt2Ul3KbNrX-D7YZu5zuUApEhoxdvY3-CGkCsEUZJSS1o7R5r0dz1s0lxPy16Zpub4eObmcAYv6Uot2lBvFOXY_HKSoFN-PHm8i2UTXwZr-2g58YDqsMox_wUPpTdncETvHM7Q7oo-1RBepYdlaEI6tHo1befSymO0]--></g></svg>