<svg xmlns="http://www.w3.org/2000/svg" xmlns:xlink="http://www.w3.org/1999/xlink" contentStyleType="text/css" data-diagram-type="DESCRIPTION" height="338px" preserveAspectRatio="none" style="width:1142px;height:338px;background:#FFFFFF;" version="1.1" viewBox="0 0 1142 338" width="1142px" zoomAndPan="magnify"><defs/><g><!--cluster System--><g class="cluster" data-entity="System" data-source-line="3" data-uid="ent0002" id="cluster_System"><rect fill="none" height="204.13" rx="2.5" ry="2.5" style="stroke:#181818;stroke-width:1;" width="1105" x="31.23" y="128.8"/><text fill="#000000" font-family="sans-serif" font-size="14" font-weight="bold" lengthAdjust="spacing" textLength="246.333" x="460.5635" y="143.7951">Syst&#232;me de Livraison de Repas</text></g><!--entity UC1--><g class="entity" data-entity="UC1" data-source-line="5" data-uid="ent0003" id="entity_UC1"><ellipse cx="130.2271" cy="184.5194" fill="#F1F1F1" rx="82.7471" ry="18.9494" style="stroke:#181818;stroke-width:0.5;"/><text fill="#000000" font-family="sans-serif" font-size="14" lengthAdjust="spacing" textLength="137.1084" x="61.6729" y="189.1679">Se connecter Client</text></g><!--entity UC2--><g class="entity" data-entity="UC2" data-source-line="6" data-uid="ent0004" id="entity_UC2"><ellipse cx="583.2307" cy="299.5941" fill="#F1F1F1" rx="74.7207" ry="17.3441" style="stroke:#181818;stroke-width:0.5;"/><text fill="#000000" font-family="sans-serif" font-size="14" lengthAdjust="spacing" textLength="118.0498" x="524.2058" y="304.2426">Cr&#233;er un compte</text></g><!--entity UC4--><g class="entity" data-entity="UC4" data-source-line="7" data-uid="ent0005" id="entity_UC4"><ellipse cx="327.2258" cy="184.5212" fill="#F1F1F1" rx="79.2558" ry="18.2512" style="stroke:#181818;stroke-width:0.5;"/><text fill="#000000" font-family="sans-serif" font-size="14" lengthAdjust="spacing" textLength="128.9189" x="262.7663" y="189.1696">Passer commande</text></g><!--entity UC5--><g class="entity" data-entity="UC5" data-source-line="10" data-uid="ent0006" id="entity_UC5"><ellipse cx="528.2337" cy="184.5207" fill="#F1F1F1" rx="86.4037" ry="19.6807" style="stroke:#181818;stroke-width:0.5;"/><text fill="#000000" font-family="sans-serif" font-size="14" lengthAdjust="spacing" textLength="145.5508" x="455.4583" y="189.1692">Se connecter Livreur</text></g><!--entity UC6--><g class="entity" data-entity="UC6" data-source-line="11" data-uid="ent0007" id="entity_UC6"><ellipse cx="693.2305" cy="184.5236" fill="#F1F1F1" rx="43.2505" ry="14.5236" style="stroke:#181818;stroke-width:0.5;"/><text fill="#000000" font-family="sans-serif" font-size="14" lengthAdjust="spacing" textLength="56.9229" x="664.7691" y="189.1721">Postuler</text></g><!--entity UC7--><g class="entity" data-entity="UC7" data-source-line="12" data-uid="ent0008" id="entity_UC7"><ellipse cx="863.2343" cy="184.5209" fill="#F1F1F1" rx="91.6043" ry="20.7209" style="stroke:#181818;stroke-width:0.5;"/><text fill="#000000" font-family="sans-serif" font-size="14" lengthAdjust="spacing" textLength="157.3633" x="784.5527" y="189.1693">Consulter commandes</text></g><!--entity VE--><g class="entity" data-entity="VE" data-source-line="18" data-uid="ent0009" id="entity_VE"><ellipse cx="1055.2321" cy="184.5164" fill="#F1F1F1" rx="65.2321" ry="15.4464" style="stroke:#181818;stroke-width:0.5;"/><text fill="#000000" font-family="sans-serif" font-size="14" lengthAdjust="spacing" textLength="94.083" x="1008.1906" y="189.1648">V&#233;rifier email</text></g><!--entity Client--><g class="entity" data-entity="Client" data-source-line="22" data-uid="ent0010" id="entity_Client"><ellipse cx="130.2251" cy="14" fill="#F1F1F1" rx="8" ry="8" style="stroke:#181818;stroke-width:0.5;"/><path d="M130.2251,22 L130.2251,49 M117.2251,30 L143.2251,30 M130.2251,49 L117.2251,64 M130.2251,49 L143.2251,64" fill="none" style="stroke:#181818;stroke-width:0.5;"/><text fill="#000000" font-family="sans-serif" font-size="14" lengthAdjust="spacing" textLength="40.5303" x="109.96" y="78.4951">Client</text></g><!--entity Livreur--><g class="entity" data-entity="Livreur" data-source-line="23" data-uid="ent0011" id="entity_Livreur"><ellipse cx="693.2263" cy="14" fill="#F1F1F1" rx="8" ry="8" style="stroke:#181818;stroke-width:0.5;"/><path d="M693.2263,22 L693.2263,49 M680.2263,30 L706.2263,30 M693.2263,49 L680.2263,64 M693.2263,49 L706.2263,64" fill="none" style="stroke:#181818;stroke-width:0.5;"/><text fill="#000000" font-family="sans-serif" font-size="14" lengthAdjust="spacing" textLength="48.9727" x="668.74" y="78.4951">Livreur</text></g><!--link Client to UC1--><g class="link" data-entity-1="Client" data-entity-2="UC1" data-source-line="27" data-uid="lnk12" id="link_Client_UC1"><path d="M130.23,82.23 C130.23,109.22 130.23,138.41 130.23,159.41" fill="none" id="Client-to-UC1" style="stroke:#181818;stroke-width:1;"/><polygon fill="#181818" points="130.23,165.41,134.23,156.41,130.23,160.41,126.23,156.41,130.23,165.41" style="stroke:#181818;stroke-width:1;"/></g><!--link Client to UC2--><g class="link" data-entity-1="Client" data-entity-2="UC2" data-source-line="28" data-uid="lnk13" id="link_Client_UC2"><path d="M109.53,53.4 C85.39,64.89 46.7,87.56 30.23,120.8 C13.57,154.43 6,176.58 30.23,205.24 C90.65,276.72 366.1925,293.3077 502.6725,297.2277" fill="none" id="Client-to-UC2" style="stroke:#181818;stroke-width:1;"/><polygon fill="#181818" points="508.67,297.4,499.7886,293.1433,503.6721,297.2564,499.5589,301.14,508.67,297.4" style="stroke:#181818;stroke-width:1;"/></g><!--link Client to UC4--><g class="link" data-entity-1="Client" data-entity-2="UC4" data-source-line="29" data-uid="lnk14" id="link_Client_UC4"><path d="M150.94,59.25 C187.78,85.23 259.606,135.853 298.546,163.303" fill="none" id="Client-to-UC4" style="stroke:#181818;stroke-width:1;"/><polygon fill="#181818" points="303.45,166.76,298.3986,158.3052,299.3633,163.8792,293.7893,164.8439,303.45,166.76" style="stroke:#181818;stroke-width:1;"/></g><!--link Livreur to UC5--><g class="link" data-entity-1="Livreur" data-entity-2="UC5" data-source-line="31" data-uid="lnk15" id="link_Livreur_UC5"><path d="M668.52,65.44 C636.43,92.45 585.4705,135.3364 554.7805,161.1664" fill="none" id="Livreur-to-UC5" style="stroke:#181818;stroke-width:1;"/><polygon fill="#181818" points="550.19,165.03,559.6515,162.295,554.0154,161.8104,554.5001,156.1743,550.19,165.03" style="stroke:#181818;stroke-width:1;"/></g><!--link Livreur to UC6--><g class="link" data-entity-1="Livreur" data-entity-2="UC6" data-source-line="32" data-uid="lnk16" id="link_Livreur_UC6"><path d="M693.23,82.23 C693.23,111.15 693.23,143.48 693.23,163.69" fill="none" id="Livreur-to-UC6" style="stroke:#181818;stroke-width:1;"/><polygon fill="#181818" points="693.23,169.69,697.23,160.69,693.23,164.69,689.23,160.69,693.23,169.69" style="stroke:#181818;stroke-width:1;"/></g><!--link Livreur to UC7--><g class="link" data-entity-1="Livreur" data-entity-2="UC7" data-source-line="33" data-uid="lnk17" id="link_Livreur_UC7"><path d="M717.95,64.84 C750.55,91.47 802.8739,134.2134 834.9239,160.4034" fill="none" id="Livreur-to-UC7" style="stroke:#181818;stroke-width:1;"/><polygon fill="#181818" points="839.57,164.2,835.132,155.4077,835.6983,161.0362,830.0698,161.6025,839.57,164.2" style="stroke:#181818;stroke-width:1;"/></g><!--link VE to UC2--><g class="link" data-entity-1="VE" data-entity-2="UC2" data-source-line="39" data-uid="lnk18" id="link_VE_UC2"><path d="M1010.82,196.16 C922.81,217.24 744.2551,260.018 651.3851,282.258" fill="none" id="VE-to-UC2" style="stroke:#181818;stroke-width:1;stroke-dasharray:7.0,7.0;"/><polygon fill="none" points="633.88,286.45,652.7824,288.093,649.9877,276.423,633.88,286.45" style="stroke:#181818;stroke-width:1;"/><text fill="#000000" font-family="sans-serif" font-size="13" lengthAdjust="spacing" textLength="61.1851" x="848.23" y="248.3069">&#171;extend&#187;</text></g><!--SRC=[VP9DQiCm48NtEiNGZLS9DEG7IWWKjxikIago5_Qa26J9UAJIqlO-3Jr2T_75Ef9bYDqVRynOtxnvUkCCRjhZGHdbb3LGUg0NSkr7XL1Ouz18uy1PJw2He904PUQTqefaQ12YmS99ywWHBXxwpXBXJZqrKb6GHDXYBUa2k3aWMC6h07uos146JLQkhM_YY5mhD8uYu0d3AIj7DuP7OPE8ABVBBuTWthH7HhnXlgeT9cesfEub4LECLDAKFJIFqD_EmfNGD_zPIqWIN8ocMd9UOt-w73ctXhnsPxOeWQi02d7kBX_l0MmTNWOre05yviLHskVFJ8Q3z-snKGV515PIwJXqVykZteN8XZy7Xo3vdY43Vjj-5Qb8bnUXxPh85YfQ8tRa6kmx0Tqllr4d19F99kvqKCw6vLo8D2bzM8pgvQXU2H4zRL5tMPq-kuHAE7t15Om2WFOOpxI4WfFhMjXj7v_WSARJj-YCkzVhJckp-GO0]--></g></svg>