<svg xmlns="http://www.w3.org/2000/svg" xmlns:xlink="http://www.w3.org/1999/xlink" contentStyleType="text/css" data-diagram-type="DESCRIPTION" height="348px" preserveAspectRatio="none" style="width:1076px;height:348px;background:#FFFFFF;" version="1.1" viewBox="0 0 1076 348" width="1076px" zoomAndPan="magnify"><defs/><g><!--cluster System--><g class="cluster" data-entity="System" data-source-line="3" data-uid="ent0002" id="cluster_System"><rect fill="none" height="213.52" rx="2.5" ry="2.5" style="stroke:#181818;stroke-width:1;" width="1063" x="7" y="128.8"/><text fill="#000000" font-family="sans-serif" font-size="14" font-weight="bold" lengthAdjust="spacing" textLength="246.333" x="415.3335" y="143.7951">Syst&#232;me de Livraison de Repas</text></g><!--entity UC8--><g class="entity" data-entity="UC8" data-source-line="8" data-uid="ent0003" id="entity_UC8"><ellipse cx="224.9985" cy="188.4957" fill="#F1F1F1" rx="111.5285" ry="24.7057" style="stroke:#181818;stroke-width:0.5;"/><text fill="#000000" font-family="sans-serif" font-size="14" lengthAdjust="spacing" textLength="201.1816" x="124.4077" y="193.1441">Se connecter Administrateur</text></g><!--entity GC--><g class="entity" data-entity="GC" data-source-line="9" data-uid="ent0004" id="entity_GC"><ellipse cx="435.9967" cy="188.4993" fill="#F1F1F1" rx="64.3967" ry="15.2793" style="stroke:#181818;stroke-width:0.5;"/><text fill="#000000" font-family="sans-serif" font-size="14" lengthAdjust="spacing" textLength="91.8613" x="390.066" y="193.1478">G&#233;rer Clients</text></g><!--entity GL--><g class="entity" data-entity="GL" data-source-line="10" data-uid="ent0005" id="entity_GL"><ellipse cx="614.9953" cy="188.5031" fill="#F1F1F1" rx="67.6153" ry="15.9231" style="stroke:#181818;stroke-width:0.5;"/><text fill="#000000" font-family="sans-serif" font-size="14" lengthAdjust="spacing" textLength="100.3037" x="564.8434" y="193.1515">G&#233;rer Livreurs</text></g><!--entity GR--><g class="entity" data-entity="GR" data-source-line="11" data-uid="ent0006" id="entity_GR"><ellipse cx="797.003" cy="188.5046" fill="#F1F1F1" rx="79.123" ry="18.2246" style="stroke:#181818;stroke-width:0.5;"/><text fill="#000000" font-family="sans-serif" font-size="14" lengthAdjust="spacing" textLength="128.6045" x="732.7007" y="193.153">G&#233;rer Restaurants</text></g><!--entity AC--><g class="entity" data-entity="AC" data-source-line="14" data-uid="ent0007" id="entity_AC"><ellipse cx="89.0022" cy="308.2624" fill="#F1F1F1" rx="65.8622" ry="15.5724" style="stroke:#181818;stroke-width:0.5;"/><text fill="#000000" font-family="sans-serif" font-size="14" lengthAdjust="spacing" textLength="95.7441" x="41.1302" y="312.9109">Ajouter Client</text></g><!--entity MC--><g class="entity" data-entity="MC" data-source-line="15" data-uid="ent0008" id="entity_MC"><ellipse cx="257.9953" cy="308.2631" fill="#F1F1F1" rx="68.1153" ry="16.0231" style="stroke:#181818;stroke-width:0.5;"/><text fill="#000000" font-family="sans-serif" font-size="14" lengthAdjust="spacing" textLength="101.5889" x="207.2009" y="312.9115">Modifier Client</text></g><!--entity SC--><g class="entity" data-entity="SC" data-source-line="16" data-uid="ent0009" id="entity_SC"><ellipse cx="435.9986" cy="308.2637" fill="#F1F1F1" rx="74.7686" ry="17.3537" style="stroke:#181818;stroke-width:0.5;"/><text fill="#000000" font-family="sans-serif" font-size="14" lengthAdjust="spacing" textLength="118.166" x="376.9156" y="312.9122">Supprimer Client</text></g><!--entity AL--><g class="entity" data-entity="AL" data-source-line="19" data-uid="ent0010" id="entity_AL"><ellipse cx="615.0035" cy="308.2567" fill="#F1F1F1" rx="69.1335" ry="16.2267" style="stroke:#181818;stroke-width:0.5;"/><text fill="#000000" font-family="sans-serif" font-size="14" lengthAdjust="spacing" textLength="104.1865" x="562.9102" y="312.9051">Ajouter Livreur</text></g><!--entity ML--><g class="entity" data-entity="ML" data-source-line="20" data-uid="ent0011" id="entity_ML"><ellipse cx="790.9991" cy="308.2618" fill="#F1F1F1" rx="71.4591" ry="16.6918" style="stroke:#181818;stroke-width:0.5;"/><text fill="#000000" font-family="sans-serif" font-size="14" lengthAdjust="spacing" textLength="110.0313" x="735.9834" y="312.9103">Modifier Livreur</text></g><!--entity SL--><g class="entity" data-entity="SL" data-source-line="21" data-uid="ent0012" id="entity_SL"><ellipse cx="976.0018" cy="308.2564" fill="#F1F1F1" rx="78.2818" ry="18.0564" style="stroke:#181818;stroke-width:0.5;"/><text fill="#000000" font-family="sans-serif" font-size="14" lengthAdjust="spacing" textLength="126.6084" x="912.6976" y="312.9048">Supprimer Livreur</text></g><!--entity Administrateur--><g class="entity" data-entity="Administrateur" data-source-line="28" data-uid="ent0013" id="entity_Administrateur"><ellipse cx="490.0018" cy="14" fill="#F1F1F1" rx="8" ry="8" style="stroke:#181818;stroke-width:0.5;"/><path d="M490.0018,22 L490.0018,49 M477.0018,30 L503.0018,30 M490.0018,49 L477.0018,64 M490.0018,49 L503.0018,64" fill="none" style="stroke:#181818;stroke-width:0.5;"/><text fill="#000000" font-family="sans-serif" font-size="14" lengthAdjust="spacing" textLength="104.6035" x="437.7" y="78.4951">Administrateur</text></g><!--link Administrateur to UC8--><g class="link" data-entity-1="Administrateur" data-entity-2="UC8" data-source-line="33" data-uid="lnk14" id="link_Administrateur_UC8"><path d="M437.33,73.04 C387.06,100.14 317.6513,137.5525 271.5613,162.4025" fill="none" id="Administrateur-to-UC8" style="stroke:#181818;stroke-width:1;"/><polygon fill="#181818" points="266.28,165.25,276.1002,164.4997,270.6811,162.8771,272.3036,157.4579,266.28,165.25" style="stroke:#181818;stroke-width:1;"/></g><!--link Administrateur to GC--><g class="link" data-entity-1="Administrateur" data-entity-2="GC" data-source-line="34" data-uid="lnk15" id="link_Administrateur_GC"><path d="M475.81,82.18 C464.56,111.94 451.5716,146.3076 443.5916,167.4176" fill="none" id="Administrateur-to-GC" style="stroke:#181818;stroke-width:1;"/><polygon fill="#181818" points="441.47,173.03,448.394,166.0258,443.238,168.353,440.9108,163.197,441.47,173.03" style="stroke:#181818;stroke-width:1;"/></g><!--link Administrateur to GL--><g class="link" data-entity-1="Administrateur" data-entity-2="GL" data-source-line="35" data-uid="lnk16" id="link_Administrateur_GL"><path d="M522.84,82.18 C548.74,111.78 579.529,146.9645 598.079,168.1645" fill="none" id="Administrateur-to-GL" style="stroke:#181818;stroke-width:1;"/><polygon fill="#181818" points="602.03,172.68,599.1138,163.2728,598.7375,168.9171,593.0932,168.5408,602.03,172.68" style="stroke:#181818;stroke-width:1;"/></g><!--link Administrateur to GR--><g class="link" data-entity-1="Administrateur" data-entity-2="GR" data-source-line="36" data-uid="lnk17" id="link_Administrateur_GR"><path d="M542.46,59.58 C585.91,72.9 648.62,94.36 700,120.8 C727.81,135.1 752.2627,152.4738 771.2727,167.0838" fill="none" id="Administrateur-to-GR" style="stroke:#181818;stroke-width:1;"/><polygon fill="#181818" points="776.03,170.74,771.3315,162.0841,772.0656,167.6932,766.4565,168.4272,776.03,170.74" style="stroke:#181818;stroke-width:1;"/></g><!--link GC to AC--><g class="link" data-entity-1="GC" data-entity-2="AC" data-source-line="39" data-uid="lnk18" id="link_GC_AC"><path d="M396.85,200.97 C352.72,213.96 283.75,234.46 258,243.21 C209.87,259.57 160.5558,278.6542 126.7358,292.0942" fill="none" id="GC-to-AC" style="stroke:#181818;stroke-width:1;stroke-dasharray:7.0,7.0;"/><polygon fill="#181818" points="121.16,294.31,131.001,294.7035,125.8065,292.4635,128.0466,287.269,121.16,294.31" style="stroke:#181818;stroke-width:1;"/><text fill="#000000" font-family="sans-serif" font-size="13" lengthAdjust="spacing" textLength="63.0068" x="259" y="256.2769">&#171;include&#187;</text></g><!--link GC to MC--><g class="link" data-entity-1="GC" data-entity-2="MC" data-source-line="40" data-uid="lnk19" id="link_GC_MC"><path d="M415.23,203.24 C381.39,225.63 319.6641,266.4695 285.0341,289.3795" fill="none" id="GC-to-MC" style="stroke:#181818;stroke-width:1;stroke-dasharray:7.0,7.0;"/><polygon fill="#181818" points="280.03,292.69,289.7431,291.0603,284.2,289.9312,285.3291,284.3882,280.03,292.69" style="stroke:#181818;stroke-width:1;"/><text fill="#000000" font-family="sans-serif" font-size="13" lengthAdjust="spacing" textLength="63.0068" x="353" y="256.2769">&#171;include&#187;</text></g><!--link GC to SC--><g class="link" data-entity-1="GC" data-entity-2="SC" data-source-line="41" data-uid="lnk20" id="link_GC_SC"><path d="M436,203.94 C436,225.81 436,261.22 436,284.42" fill="none" id="GC-to-SC" style="stroke:#181818;stroke-width:1;stroke-dasharray:7.0,7.0;"/><polygon fill="#181818" points="436,290.42,440,281.42,436,285.42,432,281.42,436,290.42" style="stroke:#181818;stroke-width:1;"/><text fill="#000000" font-family="sans-serif" font-size="13" lengthAdjust="spacing" textLength="63.0068" x="437" y="256.2769">&#171;include&#187;</text></g><!--link GL to AL--><g class="link" data-entity-1="GL" data-entity-2="AL" data-source-line="44" data-uid="lnk21" id="link_GL_AL"><path d="M615,204.9 C615,227.47 615,263.29 615,285.86" fill="none" id="GL-to-AL" style="stroke:#181818;stroke-width:1;stroke-dasharray:7.0,7.0;"/><polygon fill="#181818" points="615,291.86,619,282.86,615,286.86,611,282.86,615,291.86" style="stroke:#181818;stroke-width:1;"/><text fill="#000000" font-family="sans-serif" font-size="13" lengthAdjust="spacing" textLength="63.0068" x="616" y="256.2769">&#171;include&#187;</text></g><!--link GL to ML--><g class="link" data-entity-1="GL" data-entity-2="ML" data-source-line="45" data-uid="lnk22" id="link_GL_ML"><path d="M636.58,203.94 C670.08,226.36 729.3138,265.9827 763.4238,288.8127" fill="none" id="GL-to-ML" style="stroke:#181818;stroke-width:1;stroke-dasharray:7.0,7.0;"/><polygon fill="#181818" points="768.41,292.15,763.1555,283.8199,764.2548,289.3689,758.7058,290.4682,768.41,292.15" style="stroke:#181818;stroke-width:1;"/><text fill="#000000" font-family="sans-serif" font-size="13" lengthAdjust="spacing" textLength="63.0068" x="719" y="256.2769">&#171;include&#187;</text></g><!--link GL to SL--><g class="link" data-entity-1="GL" data-entity-2="SL" data-source-line="46" data-uid="lnk23" id="link_GL_SL"><path d="M656.03,201.55 C691.79,212.17 744.98,228.22 791,243.21 C840.77,259.41 891.956,277.2919 929.346,290.5719" fill="none" id="GL-to-SL" style="stroke:#181818;stroke-width:1;stroke-dasharray:7.0,7.0;"/><polygon fill="#181818" points="935,292.58,927.8578,285.7985,930.2884,290.9065,925.1803,293.3371,935,292.58" style="stroke:#181818;stroke-width:1;"/><text fill="#000000" font-family="sans-serif" font-size="13" lengthAdjust="spacing" textLength="63.0068" x="837" y="256.2769">&#171;include&#187;</text></g><!--SRC=[ZL9BQiCm5Dph58zil4hMfGI3SS4RUMEJ0mZxfQZOaj6J2gNqFWqzGdV9nIhvayR6WNXXp7ZUp4Xl8dYvd8vIIIkrWje1VP2zVBS8bLOMbL0Mh7O43H9KWg2Ed9MD914663DOMQ5U6uHDEKtM25o-6o4fI28Ks0dQW1yE56pXap7mp_yhWWDXaFScdNQcTqlgrkSYQuH5PwWdEiB0ycPzGENTqIoOlTCXVPeFP9UJyTIqaQZia2PBLoaXUp0SE7oLKo1PuOouIXMtX_5NQeLi2AIg6dztjL2UCWimLqtUjBFNdxrYiWYNwreUvPoJBpYbwpeZspcfJ1-DDXryFTluTmZ7xuIx9UNyNhfRLid7UEoBiMZUHby2KGtBP_v3BpST1X8YNSc-ZGJ-p0Qd6K2xrbWsru3jDkxRiWBxWgoXV1KjGfe2cp7A-MUuOj__y-zGwaK3iXHskzWl6fvXln_9SJpX-HsyNE8Fsbwtc_71bo_r1po_WvSB_0y0]--></g></svg>